<svg width="120" height="62" viewBox="0 0 120 62" fill="none" xmlns="http://www.w3.org/2000/svg">
<circle cx="31" cy="31" r="31" fill="white"/>
<rect x="25" y="15" width="6" height="35" rx="3" fill="#1E1E1E"/>
<rect x="44" y="28" width="6" height="10" rx="3" fill="#252525"/>
<rect x="35" y="23" width="6" height="20" rx="3" fill="#1E1E1E"/>
<rect x="15" y="25" width="6" height="15" rx="3" fill="#1E1E1E"/>
<path d="M68.1 46L72.86 21.5H76.9375L82.625 36.4975L88.33 21.5H92.4075L97.1675 46H92.2325L89.52 31.9475L84.2875 45.755H80.9625L75.7475 31.9475L73.0175 46H68.1ZM102.423 46V21.5H111.541C112.859 21.5 114.055 21.7742 115.128 22.3225C116.202 22.8592 117.047 23.6292 117.666 24.6325C118.296 25.6358 118.611 26.8142 118.611 28.1675C118.611 28.7158 118.535 29.2817 118.383 29.865C118.243 30.4483 117.998 30.985 117.648 31.475C117.31 31.965 116.843 32.3383 116.248 32.595C117.018 32.7817 117.637 33.1317 118.103 33.645C118.57 34.1467 118.926 34.73 119.171 35.395C119.416 36.0483 119.579 36.7192 119.661 37.4075C119.742 38.0958 119.783 38.72 119.783 39.28C119.783 40.54 119.457 41.6775 118.803 42.6925C118.15 43.7075 117.269 44.5125 116.161 45.1075C115.064 45.7025 113.851 46 112.521 46H102.423ZM107.253 41.8875H112.013C112.655 41.8875 113.238 41.7358 113.763 41.4325C114.288 41.1175 114.708 40.6917 115.023 40.155C115.338 39.6067 115.496 38.9883 115.496 38.3C115.496 37.7167 115.338 37.1625 115.023 36.6375C114.708 36.1125 114.288 35.6867 113.763 35.36C113.238 35.0217 112.655 34.8525 112.013 34.8525H107.253V41.8875ZM107.253 30.8275H110.981C111.751 30.8275 112.41 30.5767 112.958 30.075C113.507 29.5733 113.781 28.9258 113.781 28.1325C113.781 27.3158 113.507 26.6975 112.958 26.2775C112.41 25.8458 111.751 25.63 110.981 25.63H107.253V30.8275Z" fill="white"/>
</svg>
