<svg width="228" height="62" viewBox="0 0 228 62" fill="none" xmlns="http://www.w3.org/2000/svg">
<circle cx="31" cy="31" r="31" fill="white"/>
<rect x="25" y="15" width="6" height="35" rx="3" fill="#1E1E1E"/>
<rect x="44" y="28" width="6" height="10" rx="3" fill="#252525"/>
<rect x="35" y="23" width="6" height="20" rx="3" fill="#1E1E1E"/>
<rect x="15" y="25" width="6" height="15" rx="3" fill="#1E1E1E"/>
<path d="M68.1 46L72.86 21.5H76.9375L82.625 36.4975L88.33 21.5H92.4075L97.1675 46H92.2325L89.52 31.9475L84.2875 45.755H80.9625L75.7475 31.9475L73.0175 46H68.1ZM100.554 39.595V28.5H105.384V38.265C105.384 38.8833 105.53 39.4433 105.822 39.945C106.125 40.435 106.528 40.8258 107.029 41.1175C107.531 41.4092 108.079 41.555 108.674 41.555C109.281 41.555 109.835 41.4092 110.337 41.1175C110.838 40.8258 111.235 40.435 111.527 39.945C111.818 39.4433 111.964 38.8833 111.964 38.265V28.5H116.794L116.812 46H111.982L111.964 44.67C111.381 45.23 110.693 45.6675 109.899 45.9825C109.118 46.2975 108.289 46.455 107.414 46.455C106.154 46.455 105.005 46.1458 103.967 45.5275C102.928 44.9092 102.1 44.0867 101.482 43.06C100.863 42.0217 100.554 40.8667 100.554 39.595ZM125.419 46.315C124.521 46.245 123.657 46.0583 122.829 45.755C122.001 45.44 121.26 45.02 120.607 44.495C119.965 43.9583 119.463 43.3167 119.102 42.57L123.162 40.82C123.29 41.0067 123.482 41.2108 123.739 41.4325C123.996 41.6425 124.305 41.8292 124.667 41.9925C125.04 42.1558 125.472 42.2375 125.962 42.2375C126.323 42.2375 126.673 42.1967 127.012 42.115C127.35 42.0217 127.624 41.8758 127.834 41.6775C128.044 41.4675 128.149 41.1933 128.149 40.855C128.149 40.4817 128.015 40.1958 127.747 39.9975C127.478 39.7992 127.152 39.6533 126.767 39.56C126.393 39.455 126.032 39.3675 125.682 39.2975C124.608 39.1108 123.593 38.7783 122.637 38.3C121.692 37.81 120.922 37.18 120.327 36.41C119.732 35.64 119.434 34.7183 119.434 33.645C119.434 32.4667 119.743 31.4517 120.362 30.6C120.98 29.7367 121.785 29.0717 122.777 28.605C123.768 28.1383 124.842 27.905 125.997 27.905C127.362 27.905 128.627 28.1908 129.794 28.7625C130.961 29.3342 131.9 30.1392 132.612 31.1775L128.797 33.435C128.645 33.2133 128.447 33.0033 128.202 32.805C127.968 32.595 127.694 32.42 127.379 32.28C127.076 32.1283 126.749 32.0408 126.399 32.0175C125.944 31.9825 125.53 32.0117 125.157 32.105C124.783 32.1867 124.486 32.3442 124.264 32.5775C124.054 32.8108 123.949 33.1258 123.949 33.5225C123.949 33.9075 124.118 34.1933 124.457 34.38C124.795 34.555 125.186 34.6892 125.629 34.7825C126.072 34.8642 126.463 34.9633 126.802 35.08C127.817 35.4067 128.767 35.8267 129.654 36.34C130.552 36.8417 131.276 37.46 131.824 38.195C132.372 38.93 132.629 39.7933 132.594 40.785C132.594 41.94 132.25 42.955 131.562 43.83C130.873 44.6933 129.981 45.3525 128.884 45.8075C127.799 46.2508 126.644 46.42 125.419 46.315ZM135.092 28.5H139.922V46H135.092V28.5ZM137.542 26.4875C136.842 26.4875 136.253 26.2542 135.775 25.7875C135.296 25.3208 135.057 24.7433 135.057 24.055C135.057 23.3667 135.296 22.7892 135.775 22.3225C136.253 21.8558 136.836 21.6225 137.525 21.6225C138.213 21.6225 138.791 21.8558 139.257 22.3225C139.736 22.7892 139.975 23.3667 139.975 24.055C139.975 24.7433 139.741 25.3208 139.275 25.7875C138.82 26.2542 138.242 26.4875 137.542 26.4875ZM153.997 40.47L158.337 42.815C157.532 43.9117 156.523 44.7925 155.31 45.4575C154.096 46.1225 152.772 46.455 151.337 46.455C149.727 46.455 148.257 46.0408 146.927 45.2125C145.609 44.3842 144.553 43.2758 143.76 41.8875C142.978 40.4875 142.587 38.9417 142.587 37.25C142.587 35.9667 142.815 34.7708 143.27 33.6625C143.725 32.5425 144.349 31.5625 145.142 30.7225C145.947 29.8708 146.88 29.2058 147.942 28.7275C149.004 28.2492 150.135 28.01 151.337 28.01C152.772 28.01 154.096 28.3425 155.31 29.0075C156.523 29.6725 157.532 30.565 158.337 31.685L153.997 34.03C153.635 33.645 153.221 33.3533 152.755 33.155C152.3 32.945 151.827 32.84 151.337 32.84C150.59 32.84 149.92 33.0442 149.325 33.4525C148.741 33.8608 148.275 34.4033 147.925 35.08C147.586 35.745 147.417 36.4683 147.417 37.25C147.417 38.02 147.592 38.7375 147.942 39.4025C148.292 40.0675 148.759 40.6042 149.342 41.0125C149.937 41.4208 150.602 41.625 151.337 41.625C151.839 41.625 152.317 41.52 152.772 41.31C153.227 41.1 153.635 40.82 153.997 40.47ZM160.829 46V19.75H165.659V46H160.829ZM180.457 28.5H185.602L176.012 54.75H170.902L174.052 46L167.752 28.5H173.037L176.467 39.4025L180.457 28.5ZM187.968 46V21.5H197.086C198.404 21.5 199.6 21.7742 200.673 22.3225C201.746 22.8592 202.592 23.6292 203.211 24.6325C203.841 25.6358 204.156 26.8142 204.156 28.1675C204.156 28.7158 204.08 29.2817 203.928 29.865C203.788 30.4483 203.543 30.985 203.193 31.475C202.855 31.965 202.388 32.3383 201.793 32.595C202.563 32.7817 203.181 33.1317 203.648 33.645C204.115 34.1467 204.471 34.73 204.716 35.395C204.961 36.0483 205.124 36.7192 205.206 37.4075C205.287 38.0958 205.328 38.72 205.328 39.28C205.328 40.54 205.001 41.6775 204.348 42.6925C203.695 43.7075 202.814 44.5125 201.706 45.1075C200.609 45.7025 199.396 46 198.066 46H187.968ZM192.798 41.8875H197.558C198.2 41.8875 198.783 41.7358 199.308 41.4325C199.833 41.1175 200.253 40.6917 200.568 40.155C200.883 39.6067 201.041 38.9883 201.041 38.3C201.041 37.7167 200.883 37.1625 200.568 36.6375C200.253 36.1125 199.833 35.6867 199.308 35.36C198.783 35.0217 198.2 34.8525 197.558 34.8525H192.798V41.8875ZM192.798 30.8275H196.526C197.296 30.8275 197.955 30.5767 198.503 30.075C199.051 29.5733 199.326 28.9258 199.326 28.1325C199.326 27.3158 199.051 26.6975 198.503 26.2775C197.955 25.8458 197.296 25.63 196.526 25.63H192.798V30.8275ZM208.818 28.5H213.648V46H208.818V28.5ZM211.268 26.4875C210.568 26.4875 209.979 26.2542 209.5 25.7875C209.022 25.3208 208.783 24.7433 208.783 24.055C208.783 23.3667 209.022 22.7892 209.5 22.3225C209.979 21.8558 210.562 21.6225 211.25 21.6225C211.939 21.6225 212.516 21.8558 212.983 22.3225C213.461 22.7892 213.7 23.3667 213.7 24.055C213.7 24.7433 213.467 25.3208 213 25.7875C212.545 26.2542 211.968 26.4875 211.268 26.4875ZM227.361 33.33H224.211V46H219.381V33.33H216.966V28.5H219.381V23.005H224.211V28.5H227.361V33.33Z" fill="white"/>
</svg>
