<svg width="145" height="62" viewBox="0 0 145 62" fill="none" xmlns="http://www.w3.org/2000/svg">
<circle cx="31" cy="31" r="31" fill="white"/>
<rect x="25" y="15" width="6" height="35" rx="3" fill="#1E1E1E"/>
<rect x="44" y="28" width="6" height="10" rx="3" fill="#252525"/>
<rect x="35" y="23" width="6" height="20" rx="3" fill="#1E1E1E"/>
<rect x="15" y="25" width="6" height="15" rx="3" fill="#1E1E1E"/>
<path d="M69.1 43L73.86 18.5H77.9375L83.625 33.4975L89.33 18.5H93.4075L98.1675 43H93.2325L90.52 28.9475L85.2875 42.755H81.9625L76.7475 28.9475L74.0175 43H69.1ZM103.423 43V18.5H112.541C113.859 18.5 115.055 18.7742 116.128 19.3225C117.202 19.8592 118.047 20.6292 118.666 21.6325C119.296 22.6358 119.611 23.8142 119.611 25.1675C119.611 25.7158 119.535 26.2817 119.383 26.865C119.243 27.4483 118.998 27.985 118.648 28.475C118.31 28.965 117.843 29.3383 117.248 29.595C118.018 29.7817 118.637 30.1317 119.103 30.645C119.57 31.1467 119.926 31.73 120.171 32.395C120.416 33.0483 120.579 33.7192 120.661 34.4075C120.742 35.0958 120.783 35.72 120.783 36.28C120.783 37.54 120.457 38.6775 119.803 39.6925C119.15 40.7075 118.269 41.5125 117.161 42.1075C116.064 42.7025 114.851 43 113.521 43H103.423ZM108.253 38.8875H113.013C113.655 38.8875 114.238 38.7358 114.763 38.4325C115.288 38.1175 115.708 37.6917 116.023 37.155C116.338 36.6067 116.496 35.9883 116.496 35.3C116.496 34.7167 116.338 34.1625 116.023 33.6375C115.708 33.1125 115.288 32.6867 114.763 32.36C114.238 32.0217 113.655 31.8525 113.013 31.8525H108.253V38.8875ZM108.253 27.8275H111.981C112.751 27.8275 113.41 27.5767 113.958 27.075C114.507 26.5733 114.781 25.9258 114.781 25.1325C114.781 24.3158 114.507 23.6975 113.958 23.2775C113.41 22.8458 112.751 22.63 111.981 22.63H108.253V27.8275Z" fill="white"/>
<path d="M121.11 19L122.09 12H124.74C125.123 12 125.458 12.08 125.745 12.24C126.035 12.3967 126.25 12.62 126.39 12.91C126.533 13.2 126.577 13.54 126.52 13.93C126.5 14.0767 126.46 14.2317 126.4 14.395C126.343 14.555 126.258 14.705 126.145 14.845C126.032 14.985 125.882 15.095 125.695 15.175C125.912 15.2283 126.075 15.3283 126.185 15.475C126.295 15.6217 126.368 15.7917 126.405 15.985C126.445 16.175 126.46 16.3683 126.45 16.565C126.443 16.7583 126.428 16.9333 126.405 17.09C126.358 17.4433 126.218 17.765 125.985 18.055C125.755 18.3417 125.468 18.5717 125.125 18.745C124.782 18.915 124.417 19 124.03 19H121.11ZM122.785 17.73H124.045C124.218 17.73 124.382 17.69 124.535 17.61C124.692 17.5267 124.822 17.4133 124.925 17.27C125.032 17.1267 125.097 16.9633 125.12 16.78C125.143 16.6267 125.122 16.4817 125.055 16.345C124.988 16.205 124.89 16.0917 124.76 16.005C124.63 15.9183 124.478 15.875 124.305 15.875H123.045L122.785 17.73ZM123.225 14.625H124.195C124.395 14.625 124.575 14.5583 124.735 14.425C124.898 14.2917 124.993 14.1233 125.02 13.92C125.05 13.7133 125 13.555 124.87 13.445C124.743 13.335 124.58 13.28 124.38 13.28H123.41L123.225 14.625ZM126.881 19L127.861 12H132.321L132.111 13.5H129.151L129.011 14.5H131.291L131.081 16H128.801L128.591 17.5H131.551L131.341 19H126.881ZM138.718 12L138.508 13.5H136.508L135.738 19H134.238L135.008 13.5H133.008L133.218 12H138.718ZM141.051 12H142.741L144.301 19H142.711L142.466 17.9H139.676L139.121 19H137.531L141.051 12ZM140.436 16.4H142.126L141.601 14.08L140.436 16.4Z" fill="white"/>
</svg>
