<svg width="240" height="60" viewBox="0 0 240 60" fill="none" xmlns="http://www.w3.org/2000/svg">
<path d="M10.4924 22.7529C11.0775 23.3379 11.2575 24.1704 11.055 24.9578C10.2674 28.0177 10.2448 31.4151 11.28 34.8124C13.2604 41.3596 19.0214 46.2869 25.7726 47.2993C38.1947 49.1218 48.7041 38.1648 46.0936 25.6553C44.6308 18.6131 38.8248 13.0334 31.7586 11.7959C29.0356 11.3235 26.4027 11.4585 23.9722 12.0884C23.1846 12.2909 22.3295 12.0884 21.7669 11.526C20.5066 10.266 21.1367 8.17361 22.8245 7.72363C26.1326 6.86867 29.7107 6.73367 33.4014 7.52114C42.358 9.45605 49.3567 16.9257 50.7294 25.9703C53.0698 41.2921 39.8825 54.274 24.5348 51.6641C15.5108 50.1117 8.19699 42.9795 6.44168 34.0024C5.74406 30.4251 5.90159 26.9828 6.71173 23.8104C7.16181 22.123 9.25468 21.5155 10.4924 22.7529ZM14.9932 29.5026C14.9932 22.0555 21.0467 16.0033 28.4955 16.0033C35.9443 16.0033 41.9979 22.0555 41.9979 29.5026C41.9979 36.9498 35.9443 43.002 28.4955 43.002C21.0467 43.002 14.9932 36.9498 14.9932 29.5026ZM17.2436 14.8783C17.2436 16.7457 15.7358 18.2532 13.868 18.2532C12.0002 18.2532 10.4924 16.7457 10.4924 14.8783C10.4924 13.0109 12.0002 11.5035 13.868 11.5035C15.7358 11.5035 17.2436 13.0109 17.2436 14.8783Z" fill="#1ED760"/>
<path d="M58.1 40V22.5H62.37V24.0575C62.965 23.4275 63.6767 22.9317 64.505 22.57C65.3333 22.1967 66.2258 22.01 67.1825 22.01C68.3958 22.01 69.51 22.2958 70.525 22.8675C71.5517 23.4392 72.3683 24.2033 72.975 25.16C73.5933 24.2033 74.41 23.4392 75.425 22.8675C76.44 22.2958 77.5542 22.01 78.7675 22.01C80.0508 22.01 81.2117 22.325 82.25 22.955C83.3 23.5733 84.1342 24.4075 84.7525 25.4575C85.3825 26.4958 85.6975 27.6567 85.6975 28.94V40H81.4275V30.0775C81.4275 29.4008 81.2583 28.7825 80.92 28.2225C80.5933 27.6508 80.15 27.1958 79.59 26.8575C79.0417 26.5075 78.4233 26.3325 77.735 26.3325C77.0467 26.3325 76.4225 26.5017 75.8625 26.84C75.3142 27.1667 74.8708 27.61 74.5325 28.17C74.1942 28.73 74.025 29.3658 74.025 30.0775V40H69.755V30.0775C69.755 29.3658 69.5917 28.73 69.265 28.17C68.9383 27.61 68.495 27.1667 67.935 26.84C67.375 26.5017 66.7508 26.3325 66.0625 26.3325C65.3858 26.3325 64.7675 26.5075 64.2075 26.8575C63.6475 27.1958 63.1983 27.6508 62.86 28.2225C62.5333 28.7825 62.37 29.4008 62.37 30.0775V40H58.1ZM90.2535 33.525V22.5H94.5235V32.405C94.5235 33.0933 94.6927 33.7233 95.031 34.295C95.3693 34.855 95.8185 35.3042 96.3785 35.6425C96.9502 35.9692 97.5743 36.1325 98.251 36.1325C98.951 36.1325 99.581 35.9692 100.141 35.6425C100.701 35.3042 101.15 34.855 101.489 34.295C101.827 33.7233 101.996 33.0933 101.996 32.405V22.5H106.266L106.284 40H102.014L101.996 38.4075C101.389 39.0375 100.672 39.5392 99.8435 39.9125C99.0152 40.2742 98.1285 40.455 97.1835 40.455C95.9118 40.455 94.751 40.1458 93.701 39.5275C92.651 38.8975 91.811 38.0633 91.181 37.025C90.5627 35.975 90.2535 34.8083 90.2535 33.525ZM116.699 40.315C115.789 40.2567 114.908 40.0758 114.057 39.7725C113.217 39.4575 112.47 39.0317 111.817 38.495C111.163 37.9583 110.662 37.3167 110.312 36.57L113.917 35.03C114.057 35.2633 114.284 35.5142 114.599 35.7825C114.914 36.0392 115.287 36.255 115.719 36.43C116.162 36.605 116.647 36.6925 117.172 36.6925C117.615 36.6925 118.035 36.6342 118.432 36.5175C118.84 36.3892 119.167 36.1967 119.412 35.94C119.668 35.6833 119.797 35.3508 119.797 34.9425C119.797 34.5108 119.645 34.1783 119.342 33.945C119.05 33.7 118.677 33.5192 118.222 33.4025C117.778 33.2742 117.347 33.1575 116.927 33.0525C115.818 32.8308 114.786 32.4867 113.829 32.02C112.884 31.5533 112.12 30.9525 111.537 30.2175C110.965 29.4708 110.679 28.5725 110.679 27.5225C110.679 26.3675 110.982 25.37 111.589 24.53C112.207 23.69 113.007 23.0425 113.987 22.5875C114.978 22.1325 116.046 21.905 117.189 21.905C118.577 21.905 119.849 22.1967 121.004 22.78C122.171 23.3517 123.092 24.1625 123.769 25.2125L120.392 27.2075C120.228 26.9275 120.001 26.6708 119.709 26.4375C119.417 26.1925 119.085 25.9942 118.712 25.8425C118.338 25.6792 117.947 25.5858 117.539 25.5625C117.014 25.5392 116.536 25.5858 116.104 25.7025C115.672 25.8192 115.322 26.0175 115.054 26.2975C114.797 26.5775 114.669 26.9508 114.669 27.4175C114.669 27.8608 114.844 28.1933 115.194 28.415C115.544 28.625 115.964 28.7883 116.454 28.905C116.956 29.0217 117.434 29.15 117.889 29.29C118.916 29.6283 119.878 30.0425 120.777 30.5325C121.687 31.0225 122.416 31.6233 122.964 32.335C123.512 33.0467 123.775 33.8983 123.752 34.89C123.752 36.0217 123.413 37.0133 122.737 37.865C122.06 38.705 121.185 39.3467 120.112 39.79C119.05 40.2333 117.912 40.4083 116.699 40.315ZM128.086 22.5H132.356V40H128.086V22.5ZM130.256 20.2425C129.626 20.2425 129.095 20.0383 128.664 19.63C128.232 19.21 128.016 18.685 128.016 18.055C128.016 17.4367 128.232 16.9175 128.664 16.4975C129.095 16.0775 129.62 15.8675 130.239 15.8675C130.857 15.8675 131.376 16.0775 131.796 16.4975C132.228 16.9175 132.444 17.4367 132.444 18.055C132.444 18.685 132.234 19.21 131.814 19.63C131.394 20.0383 130.875 20.2425 130.256 20.2425ZM148.753 34.7325L152.603 36.815C151.798 37.9117 150.789 38.7925 149.575 39.4575C148.362 40.1225 147.038 40.455 145.603 40.455C143.993 40.455 142.523 40.0408 141.193 39.2125C139.874 38.3842 138.819 37.2758 138.025 35.8875C137.244 34.4875 136.853 32.9417 136.853 31.25C136.853 29.9667 137.08 28.7708 137.535 27.6625C137.99 26.5425 138.614 25.5625 139.408 24.7225C140.213 23.8708 141.146 23.2058 142.208 22.7275C143.269 22.2492 144.401 22.01 145.603 22.01C147.038 22.01 148.362 22.3425 149.575 23.0075C150.789 23.6725 151.798 24.565 152.603 25.685L148.753 27.75C148.344 27.2833 147.86 26.9217 147.3 26.665C146.752 26.4083 146.186 26.28 145.603 26.28C144.763 26.28 144.004 26.5133 143.328 26.98C142.651 27.435 142.114 28.0417 141.718 28.8C141.321 29.5467 141.123 30.3633 141.123 31.25C141.123 32.125 141.321 32.9417 141.718 33.7C142.114 34.4467 142.651 35.0475 143.328 35.5025C144.004 35.9575 144.763 36.185 145.603 36.185C146.209 36.185 146.787 36.0567 147.335 35.8C147.884 35.5317 148.356 35.1758 148.753 34.7325ZM156.948 40V13.75H161.218V40H156.948ZM177.983 22.5H182.515L172.943 48.75H168.41L171.578 40L165.278 22.5H169.95L173.713 34.155L177.983 22.5ZM196.042 22.01C197.745 22.01 199.297 22.4242 200.697 23.2525C202.097 24.0808 203.211 25.195 204.039 26.595C204.868 27.9833 205.282 29.5233 205.282 31.215C205.282 32.4867 205.043 33.6825 204.564 34.8025C204.086 35.9225 203.421 36.9083 202.569 37.76C201.729 38.6 200.749 39.2592 199.629 39.7375C198.521 40.2158 197.325 40.455 196.042 40.455C194.945 40.455 193.971 40.21 193.119 39.72C192.279 39.2183 191.574 38.5708 191.002 37.7775V40H186.732V13.75H191.002V24.6875C191.574 23.8942 192.279 23.2525 193.119 22.7625C193.971 22.2608 194.945 22.01 196.042 22.01ZM195.989 36.325C196.899 36.325 197.722 36.0975 198.457 35.6425C199.204 35.1758 199.799 34.5575 200.242 33.7875C200.685 33.0175 200.907 32.16 200.907 31.215C200.907 30.2817 200.685 29.43 200.242 28.66C199.799 27.8783 199.204 27.26 198.457 26.805C197.71 26.35 196.888 26.1225 195.989 26.1225C195.103 26.1225 194.309 26.3558 193.609 26.8225C192.909 27.2775 192.361 27.8958 191.964 28.6775C191.568 29.4475 191.369 30.2933 191.369 31.215C191.369 32.16 191.568 33.0233 191.964 33.805C192.361 34.575 192.909 35.1875 193.609 35.6425C194.309 36.0975 195.103 36.325 195.989 36.325ZM209.4 22.5H213.67V40H209.4V22.5ZM211.57 20.2425C210.94 20.2425 210.409 20.0383 209.977 19.63C209.546 19.21 209.33 18.685 209.33 18.055C209.33 17.4367 209.546 16.9175 209.977 16.4975C210.409 16.0775 210.934 15.8675 211.552 15.8675C212.171 15.8675 212.69 16.0775 213.11 16.4975C213.541 16.9175 213.757 17.4367 213.757 18.055C213.757 18.685 213.547 19.21 213.127 19.63C212.707 20.0383 212.188 20.2425 211.57 20.2425ZM229.006 26.77H225.611V40H221.341V26.77H218.751V22.5H221.341V17.005H225.611V22.5H229.006V26.77Z" fill="white"/>
<path d="M58.1 40H57.1V41H58.1V40ZM58.1 22.5V21.5H57.1V22.5H58.1ZM62.37 22.5H63.37V21.5H62.37V22.5ZM62.37 24.0575H61.37V26.5727L63.097 24.7441L62.37 24.0575ZM64.505 22.57L64.9052 23.4865L64.9159 23.4817L64.505 22.57ZM70.525 22.8675L70.0343 23.7388L70.0385 23.7412L70.525 22.8675ZM72.975 25.16L72.1305 25.6955L72.967 27.0146L73.8148 25.7028L72.975 25.16ZM75.425 22.8675L74.9343 21.9962L75.425 22.8675ZM82.25 22.955L81.7312 23.81L81.7426 23.8167L82.25 22.955ZM84.7525 25.4575L83.8907 25.965L83.8976 25.9762L84.7525 25.4575ZM85.6975 40V41H86.6975V40H85.6975ZM81.4275 40H80.4275V41H81.4275V40ZM80.92 28.2225L80.0518 28.7186L80.0578 28.7292L80.0641 28.7396L80.92 28.2225ZM79.59 26.8575L79.052 27.7004L79.0623 27.707L79.0729 27.7134L79.59 26.8575ZM75.8625 26.84L76.3743 27.6991L76.3796 27.6959L75.8625 26.84ZM74.5325 28.17L73.6766 27.6529L73.6766 27.6529L74.5325 28.17ZM74.025 40V41H75.025V40H74.025ZM69.755 40H68.755V41H69.755V40ZM69.265 28.17L70.1288 27.6661L70.1288 27.6661L69.265 28.17ZM67.935 26.84L67.4179 27.6959L67.4245 27.6999L67.4311 27.7038L67.935 26.84ZM64.2075 26.8575L64.7246 27.7134L64.7311 27.7095L64.7375 27.7055L64.2075 26.8575ZM62.86 28.2225L61.9994 27.7132L61.9962 27.7186L62.86 28.2225ZM62.37 40V41H63.37V40H62.37ZM59.1 40V22.5H57.1V40H59.1ZM58.1 23.5H62.37V21.5H58.1V23.5ZM61.37 22.5V24.0575H63.37V22.5H61.37ZM63.097 24.7441C63.5957 24.2161 64.1947 23.7966 64.9051 23.4865L64.1049 21.6535C63.1586 22.0667 62.3343 22.6389 61.643 23.3709L63.097 24.7441ZM64.9159 23.4817C65.6083 23.1696 66.3599 23.01 67.1825 23.01V21.01C66.0918 21.01 65.0584 21.2237 64.0941 21.6583L64.9159 23.4817ZM67.1825 23.01C68.2313 23.01 69.1754 23.2551 70.0343 23.7388L71.0157 21.9962C69.8446 21.3366 68.5603 21.01 67.1825 21.01V23.01ZM70.0385 23.7412C70.9252 24.2349 71.6165 24.885 72.1305 25.6955L73.8195 24.6245C73.1202 23.5216 72.1782 22.6434 71.0115 21.9938L70.0385 23.7412ZM73.8148 25.7028C74.3431 24.8855 75.0387 24.2328 75.9157 23.7388L74.9343 21.9962C73.7813 22.6456 72.8436 23.5212 72.1352 24.6172L73.8148 25.7028ZM75.9157 23.7388C76.7746 23.2551 77.7187 23.01 78.7675 23.01V21.01C77.3897 21.01 76.1054 21.3366 74.9343 21.9962L75.9157 23.7388ZM78.7675 23.01C79.8787 23.01 80.8583 23.2803 81.7313 23.8099L82.7687 22.1001C81.565 21.3697 80.2229 21.01 78.7675 21.01V23.01ZM81.7426 23.8167C82.6463 24.3489 83.3586 25.0612 83.8908 25.9649L85.6142 24.9501C84.9097 23.7538 83.9537 22.7978 82.7574 22.0933L81.7426 23.8167ZM83.8976 25.9762C84.4272 26.8492 84.6975 27.8288 84.6975 28.94H86.6975C86.6975 27.4846 86.3378 26.1425 85.6074 24.9388L83.8976 25.9762ZM84.6975 28.94V40H86.6975V28.94H84.6975ZM85.6975 39H81.4275V41H85.6975V39ZM82.4275 40V30.0775H80.4275V40H82.4275ZM82.4275 30.0775C82.4275 29.2251 82.2118 28.4269 81.7759 27.7054L80.0641 28.7396C80.3048 29.1381 80.4275 29.5766 80.4275 30.0775H82.4275ZM81.7882 27.7264C81.3776 27.0078 80.8139 26.4286 80.1071 26.0016L79.0729 27.7134C79.4861 27.9631 79.809 28.2939 80.0518 28.7186L81.7882 27.7264ZM80.128 26.0146C79.4095 25.5559 78.6024 25.3325 77.735 25.3325V27.3325C78.2443 27.3325 78.6739 27.4591 79.052 27.7004L80.128 26.0146ZM77.735 25.3325C76.8743 25.3325 76.0697 25.5465 75.3454 25.9841L76.3796 27.6959C76.7753 27.4568 77.219 27.3325 77.735 27.3325V25.3325ZM75.3507 25.9809C74.6577 26.3938 74.0976 26.956 73.6766 27.6529L75.3884 28.6871C75.6441 28.264 75.9706 27.9396 76.3743 27.6991L75.3507 25.9809ZM73.6766 27.6529C73.2358 28.3825 73.025 29.2001 73.025 30.0775H75.025C75.025 29.5316 75.1525 29.0775 75.3884 28.6871L73.6766 27.6529ZM73.025 30.0775V40H75.025V30.0775H73.025ZM74.025 39H69.755V41H74.025V39ZM70.755 40V30.0775H68.755V40H70.755ZM70.755 30.0775C70.755 29.2066 70.5532 28.3937 70.1288 27.6661L68.4012 28.6739C68.6301 29.0663 68.755 29.5251 68.755 30.0775H70.755ZM70.1288 27.6661C69.7152 26.9571 69.1479 26.3898 68.4389 25.9762L67.4311 27.7038C67.8421 27.9435 68.1615 28.2629 68.4012 28.6739L70.1288 27.6661ZM68.4521 25.9841C67.7278 25.5465 66.9232 25.3325 66.0625 25.3325V27.3325C66.5785 27.3325 67.0222 27.4568 67.4179 27.6959L68.4521 25.9841ZM66.0625 25.3325C65.2033 25.3325 64.4005 25.5576 63.6775 26.0095L64.7375 27.7055C65.1345 27.4574 65.5684 27.3325 66.0625 27.3325V25.3325ZM63.6904 26.0016C62.9868 26.4267 62.4205 27.0017 61.9994 27.7132L63.7206 28.7318C63.9761 28.3 64.3082 27.965 64.7246 27.7134L63.6904 26.0016ZM61.9962 27.7186C61.5764 28.4384 61.37 29.2319 61.37 30.0775H63.37C63.37 29.5698 63.4903 29.1266 63.7238 28.7264L61.9962 27.7186ZM61.37 30.0775V40H63.37V30.0775H61.37ZM62.37 39H58.1V41H62.37V39ZM90.2535 22.5V21.5H89.2535V22.5H90.2535ZM94.5235 22.5H95.5235V21.5H94.5235V22.5ZM95.031 34.295L94.1704 34.8043L94.1751 34.8121L95.031 34.295ZM96.3785 35.6425L95.8614 36.4984L95.8718 36.5047L95.8824 36.5107L96.3785 35.6425ZM100.141 35.6425L100.645 36.5063L100.652 36.5024L100.658 36.4984L100.141 35.6425ZM101.489 34.295L102.344 34.8121L102.349 34.8043L101.489 34.295ZM101.996 22.5V21.5H100.996V22.5H101.996ZM106.266 22.5L107.266 22.499L107.265 21.5H106.266V22.5ZM106.284 40V41H107.285L107.284 39.999L106.284 40ZM102.014 40L101.014 40.011L101.024 41H102.014V40ZM101.996 38.4075L102.996 38.3965L102.969 35.9553L101.276 37.7139L101.996 38.4075ZM99.8435 39.9125L100.244 40.829L100.254 40.8242L99.8435 39.9125ZM93.701 39.5275L93.1865 40.385L93.1936 40.3892L93.701 39.5275ZM91.181 37.025L90.3193 37.5325L90.3261 37.5437L91.181 37.025ZM91.2535 33.525V22.5H89.2535V33.525H91.2535ZM90.2535 23.5H94.5235V21.5H90.2535V23.5ZM93.5235 22.5V32.405H95.5235V22.5H93.5235ZM93.5235 32.405C93.5235 33.2657 93.7374 34.0727 94.1704 34.8043L95.8916 33.7857C95.6479 33.374 95.5235 32.9209 95.5235 32.405H93.5235ZM94.1751 34.8121C94.5972 35.5108 95.1627 36.0763 95.8614 36.4984L96.8956 34.7866C96.4744 34.5321 96.1415 34.1992 95.8869 33.7779L94.1751 34.8121ZM95.8824 36.5107C96.6095 36.9262 97.4054 37.1325 98.251 37.1325V35.1325C97.7433 35.1325 97.2909 35.0121 96.8747 34.7743L95.8824 36.5107ZM98.251 37.1325C99.1135 37.1325 99.9198 36.9292 100.645 36.5063L99.6371 34.7787C99.2422 35.0091 98.7885 35.1325 98.251 35.1325V37.1325ZM100.658 36.4984C101.357 36.0763 101.922 35.5108 102.344 34.8121L100.633 33.7779C100.378 34.1992 100.045 34.5321 99.6239 34.7866L100.658 36.4984ZM102.349 34.8043C102.782 34.0727 102.996 33.2657 102.996 32.405H100.996C100.996 32.9209 100.872 33.374 100.628 33.7857L102.349 34.8043ZM102.996 32.405V22.5H100.996V32.405H102.996ZM101.996 23.5H106.266V21.5H101.996V23.5ZM105.266 22.501L105.284 40.001L107.284 39.999L107.266 22.499L105.266 22.501ZM106.284 39H102.014V41H106.284V39ZM103.013 39.989L102.996 38.3965L100.996 38.4185L101.014 40.011L103.013 39.989ZM101.276 37.7139C100.761 38.2486 100.149 38.6777 99.4326 39.0008L100.254 40.8242C101.194 40.4006 102.018 39.8264 102.716 39.1011L101.276 37.7139ZM99.4434 38.996C98.747 39.3001 97.9972 39.455 97.1835 39.455V41.455C98.2598 41.455 99.2834 41.2482 100.244 40.829L99.4434 38.996ZM97.1835 39.455C96.0822 39.455 95.0978 39.1896 94.2085 38.6658L93.1936 40.3892C94.4042 41.1021 95.7415 41.455 97.1835 41.455V39.455ZM94.2155 38.67C93.3036 38.1229 92.581 37.4045 92.036 36.5063L90.3261 37.5437C91.0411 38.7221 91.9984 39.6721 93.1865 40.385L94.2155 38.67ZM92.0427 36.5176C91.5198 35.6296 91.2535 34.6398 91.2535 33.525H89.2535C89.2535 34.9769 89.6056 36.3204 90.3193 37.5324L92.0427 36.5176ZM116.699 40.315L116.776 39.3179L116.763 39.317L116.699 40.315ZM114.057 39.7725L113.705 40.7088L113.713 40.7117L113.721 40.7145L114.057 39.7725ZM111.817 38.495L112.451 37.7223L112.451 37.7223L111.817 38.495ZM110.312 36.57L109.919 35.6504L108.967 36.0571L109.406 36.9944L110.312 36.57ZM113.917 35.03L114.774 34.5155L114.325 33.7679L113.524 34.1104L113.917 35.03ZM114.599 35.7825L113.951 36.5437L113.959 36.5508L113.967 36.5577L114.599 35.7825ZM115.719 36.43L115.343 37.3568L115.352 37.3602L115.719 36.43ZM118.432 36.5175L118.714 37.4769L118.723 37.4743L118.731 37.4715L118.432 36.5175ZM119.412 35.94L118.704 35.2329L118.696 35.2411L118.688 35.2495L119.412 35.94ZM119.342 33.945L118.698 34.7107L118.715 34.7245L118.732 34.7376L119.342 33.945ZM118.222 33.4025L117.943 34.3631L117.958 34.3673L117.973 34.3712L118.222 33.4025ZM116.927 33.0525L117.169 32.0824L117.146 32.0766L117.123 32.0719L116.927 33.0525ZM113.829 32.02L113.386 32.9166L113.391 32.9188L113.829 32.02ZM111.537 30.2175L110.743 30.8254L110.748 30.8323L110.753 30.8392L111.537 30.2175ZM111.589 24.53L110.784 23.9372L110.778 23.9445L111.589 24.53ZM113.987 22.5875L113.569 21.6786L113.565 21.6805L113.987 22.5875ZM121.004 22.78L120.553 23.6727L120.564 23.678L121.004 22.78ZM123.769 25.2125L124.278 26.0735L125.173 25.5447L124.61 24.6708L123.769 25.2125ZM120.392 27.2075L119.528 27.7114L120.034 28.5799L120.9 28.0685L120.392 27.2075ZM119.709 26.4375L119.066 27.2032L119.075 27.2109L119.084 27.2184L119.709 26.4375ZM118.712 25.8425L118.311 26.7587L118.323 26.764L118.335 26.769L118.712 25.8425ZM117.539 25.5625L117.596 24.564L117.583 24.5635L117.539 25.5625ZM115.054 26.2975L114.332 25.6056L114.324 25.6136L114.317 25.6218L115.054 26.2975ZM115.194 28.415L114.659 29.2598L114.669 29.2663L114.68 29.2725L115.194 28.415ZM116.454 28.905L116.222 29.8778L116.228 29.879L116.454 28.905ZM117.889 29.29L118.202 28.3402L118.193 28.3371L118.183 28.3342L117.889 29.29ZM120.777 30.5325L120.298 31.4104L120.302 31.413L120.777 30.5325ZM122.964 32.335L123.756 31.7247L123.756 31.7247L122.964 32.335ZM123.752 34.89L122.752 34.8665L122.752 34.8782V34.89H123.752ZM122.737 37.865L123.515 38.4923L123.519 38.4871L122.737 37.865ZM120.112 39.79L119.73 38.8657L119.726 38.8672L120.112 39.79ZM116.763 39.317C115.945 39.2646 115.155 39.1024 114.392 38.8305L113.721 40.7145C114.661 41.0493 115.633 41.2487 116.635 41.313L116.763 39.317ZM114.408 38.8362C113.664 38.5574 113.015 38.185 112.451 37.7223L111.182 39.2677C111.925 39.8783 112.769 40.3576 113.705 40.7088L114.408 38.8362ZM112.451 37.7223C111.91 37.2776 111.502 36.754 111.217 36.1456L109.406 36.9944C109.821 37.8794 110.416 38.639 111.182 39.2677L112.451 37.7223ZM110.704 37.4896L114.309 35.9496L113.524 34.1104L109.919 35.6504L110.704 37.4896ZM113.059 35.5445C113.276 35.906 113.591 36.2377 113.951 36.5437L115.247 35.0213C114.977 34.7906 114.837 34.6206 114.774 34.5155L113.059 35.5445ZM113.967 36.5577C114.37 36.8858 114.833 37.1497 115.343 37.3567L116.095 35.5033C115.742 35.3603 115.458 35.1925 115.231 35.0073L113.967 36.5577ZM115.352 37.3602C115.923 37.5858 116.534 37.6925 117.172 37.6925V35.6925C116.759 35.6925 116.401 35.6242 116.086 35.4998L115.352 37.3602ZM117.172 37.6925C117.703 37.6925 118.219 37.6224 118.714 37.4769L118.149 35.5581C117.851 35.646 117.526 35.6925 117.172 35.6925V37.6925ZM118.731 37.4715C119.268 37.3029 119.751 37.0322 120.135 36.6305L118.688 35.2495C118.582 35.3611 118.412 35.4754 118.132 35.5635L118.731 37.4715ZM120.119 36.6471C120.587 36.1788 120.797 35.5799 120.797 34.9425H118.797C118.797 35.1218 118.749 35.1879 118.704 35.2329L120.119 36.6471ZM120.797 34.9425C120.797 34.2457 120.534 33.601 119.951 33.1524L118.732 34.7376C118.76 34.7596 118.768 34.7737 118.773 34.7844C118.78 34.7989 118.797 34.8442 118.797 34.9425H120.797ZM119.985 33.1793C119.555 32.8181 119.037 32.5792 118.47 32.4338L117.973 34.3712C118.316 34.4591 118.545 34.5819 118.698 34.7107L119.985 33.1793ZM118.5 32.4419C118.045 32.3104 117.602 32.1905 117.169 32.0824L116.684 34.0226C117.091 34.1245 117.511 34.2379 117.943 34.3631L118.5 32.4419ZM117.123 32.0719C116.093 31.866 115.143 31.5481 114.267 31.1212L113.391 32.9188C114.429 33.4252 115.543 33.7957 116.73 34.0331L117.123 32.0719ZM114.272 31.1234C113.443 30.714 112.801 30.2016 112.32 29.5958L110.753 30.8392C111.439 31.7034 112.325 32.3927 113.386 32.9166L114.272 31.1234ZM112.331 29.6096C111.908 29.0577 111.679 28.3797 111.679 27.5225H109.679C109.679 28.7653 110.022 29.884 110.743 30.8254L112.331 29.6096ZM111.679 27.5225C111.679 26.5525 111.93 25.7657 112.4 25.1155L110.778 23.9445C110.035 24.9743 109.679 26.1825 109.679 27.5225H111.679ZM112.394 25.1228C112.909 24.4231 113.574 23.8814 114.408 23.4945L113.565 21.6805C112.439 22.2036 111.505 22.9569 110.784 23.9372L112.394 25.1228ZM114.404 23.4964C115.258 23.1043 116.183 22.905 117.189 22.905V20.905C115.909 20.905 114.698 21.1607 113.57 21.6786L114.404 23.4964ZM117.189 22.905C118.432 22.905 119.548 23.165 120.553 23.6726L121.455 21.8874C120.15 21.2284 118.722 20.905 117.189 20.905V22.905ZM120.564 23.678C121.574 24.1729 122.354 24.8635 122.928 25.7542L124.61 24.6708C123.83 23.4615 122.767 22.5304 121.444 21.882L120.564 23.678ZM123.26 24.3515L119.883 26.3465L120.9 28.0685L124.278 26.0735L123.26 24.3515ZM121.255 26.7036C121.021 26.3025 120.707 25.9553 120.334 25.6566L119.084 27.2184C119.294 27.3864 119.435 27.5525 119.528 27.7114L121.255 26.7036ZM120.352 25.6718C119.976 25.3558 119.552 25.1047 119.088 24.916L118.335 26.769C118.617 26.8836 118.859 27.0292 119.066 27.2032L120.352 25.6718ZM119.112 24.9263C118.63 24.7152 118.123 24.5942 117.596 24.5641L117.482 26.5609C117.772 26.5775 118.047 26.6431 118.311 26.7587L119.112 24.9263ZM117.583 24.5635C116.973 24.5364 116.39 24.5894 115.843 24.7371L116.365 26.6679C116.682 26.5823 117.055 26.542 117.495 26.5615L117.583 24.5635ZM115.843 24.7371C115.263 24.8939 114.745 25.1751 114.332 25.6056L115.776 26.9894C115.9 26.8599 116.082 26.7444 116.365 26.6679L115.843 24.7371ZM114.317 25.6218C113.855 26.1261 113.669 26.7606 113.669 27.4175H115.669C115.669 27.1411 115.74 27.0289 115.791 26.9732L114.317 25.6218ZM113.669 27.4175C113.669 28.1747 113.996 28.8399 114.659 29.2598L115.729 27.5702C115.706 27.5553 115.694 27.5446 115.69 27.5402C115.687 27.5363 115.686 27.5346 115.685 27.5336C115.685 27.5325 115.681 27.5256 115.677 27.5092C115.673 27.4921 115.669 27.4626 115.669 27.4175H113.669ZM114.68 29.2725C115.135 29.5458 115.655 29.7427 116.222 29.8778L116.686 27.9322C116.273 27.8339 115.953 27.7042 115.709 27.5575L114.68 29.2725ZM116.228 29.879C116.708 29.9908 117.164 30.1132 117.595 30.2458L118.183 28.3342C117.704 28.1868 117.203 28.0525 116.681 27.931L116.228 29.879ZM117.576 30.2398C118.549 30.5602 119.455 30.9509 120.298 31.4104L121.255 29.6546C120.301 29.1341 119.283 28.6964 118.202 28.3402L117.576 30.2398ZM120.302 31.413C121.107 31.8463 121.721 32.3606 122.172 32.9453L123.756 31.7247C123.11 30.886 122.266 30.1987 121.251 29.652L120.302 31.413ZM122.172 32.9453C122.566 33.4566 122.77 34.0783 122.752 34.8665L124.751 34.9135C124.779 33.7184 124.459 32.6368 123.756 31.7247L122.172 32.9453ZM122.752 34.89C122.752 35.8056 122.484 36.5757 121.954 37.2429L123.519 38.4871C124.343 37.451 124.752 36.2377 124.752 34.89H122.752ZM121.958 37.2377C121.394 37.937 120.66 38.4814 119.73 38.8657L120.493 40.7143C121.71 40.2119 122.725 39.473 123.515 38.4923L121.958 37.2377ZM119.726 38.8672C118.819 39.2461 117.841 39.3999 116.776 39.3179L116.622 41.3121C117.984 41.4168 119.281 41.2206 120.497 40.7128L119.726 38.8672ZM128.086 22.5V21.5H127.086V22.5H128.086ZM132.356 22.5H133.356V21.5H132.356V22.5ZM132.356 40V41H133.356V40H132.356ZM128.086 40H127.086V41H128.086V40ZM128.664 19.63L127.966 20.3468L127.977 20.3565L128.664 19.63ZM128.664 16.4975L129.361 17.2142L129.361 17.2142L128.664 16.4975ZM131.796 16.4975L131.089 17.2047L131.099 17.2142L131.796 16.4975ZM131.814 19.63L132.511 20.3471L132.521 20.3371L131.814 19.63ZM128.086 23.5H132.356V21.5H128.086V23.5ZM131.356 22.5V40H133.356V22.5H131.356ZM132.356 39H128.086V41H132.356V39ZM129.086 40V22.5H127.086V40H129.086ZM130.256 19.2425C129.865 19.2425 129.585 19.1249 129.351 18.9035L127.977 20.3565C128.606 20.9518 129.388 21.2425 130.256 21.2425V19.2425ZM129.361 18.9133C129.133 18.691 129.016 18.4289 129.016 18.055H127.016C127.016 18.9411 127.332 19.729 127.966 20.3467L129.361 18.9133ZM129.016 18.055C129.016 17.6985 129.129 17.4404 129.361 17.2142L127.966 15.7808C127.336 16.3946 127.016 17.1748 127.016 18.055H129.016ZM129.361 17.2142C129.601 16.9812 129.873 16.8675 130.239 16.8675V14.8675C129.368 14.8675 128.59 15.1738 127.966 15.7808L129.361 17.2142ZM130.239 16.8675C130.604 16.8675 130.865 16.9806 131.089 17.2046L132.503 15.7904C131.887 15.1744 131.11 14.8675 130.239 14.8675V16.8675ZM131.099 17.2142C131.331 17.4404 131.444 17.6985 131.444 18.055H133.444C133.444 17.1748 133.125 16.3946 132.494 15.7808L131.099 17.2142ZM131.444 18.055C131.444 18.4376 131.327 18.7027 131.107 18.9229L132.521 20.3371C133.141 19.7173 133.444 18.9324 133.444 18.055H131.444ZM131.117 18.913C130.895 19.129 130.63 19.2425 130.256 19.2425V21.2425C131.119 21.2425 131.893 20.9477 132.511 20.347L131.117 18.913ZM148.753 34.7325L149.229 33.8529L148.534 33.4773L148.007 34.0657L148.753 34.7325ZM152.603 36.815L153.409 37.4067L154.088 36.4815L153.079 35.9354L152.603 36.815ZM149.575 39.4575L150.056 40.3344L150.056 40.3344L149.575 39.4575ZM141.193 39.2125L140.661 40.0592L140.664 40.0613L141.193 39.2125ZM138.025 35.8875L137.152 36.375L137.157 36.3836L138.025 35.8875ZM137.535 27.6625L138.46 28.0423L138.462 28.0389L137.535 27.6625ZM139.408 24.7225L138.681 24.0356L138.681 24.0359L139.408 24.7225ZM142.208 22.7275L141.797 21.8158L141.797 21.8158L142.208 22.7275ZM149.575 23.0075L150.056 22.1306L150.056 22.1306L149.575 23.0075ZM152.603 25.685L153.075 26.5662L154.08 26.0273L153.415 25.1014L152.603 25.685ZM148.753 27.75L148 28.4085L148.524 29.0074L149.225 28.6312L148.753 27.75ZM147.3 26.665L146.876 27.5707L146.884 27.5741L147.3 26.665ZM143.328 26.98L143.886 27.8099L143.895 27.8032L143.328 26.98ZM141.718 28.8L142.601 29.2692L142.604 29.2635L141.718 28.8ZM141.718 33.7L140.832 34.1635L140.835 34.1692L141.718 33.7ZM143.328 35.5025L142.77 36.3323L142.77 36.3323L143.328 35.5025ZM147.335 35.8L147.759 36.7057L147.767 36.702L147.775 36.6982L147.335 35.8ZM148.277 35.6121L152.127 37.6946L153.079 35.9354L149.229 33.8529L148.277 35.6121ZM151.797 36.2233C151.079 37.2002 150.182 37.9845 149.095 38.5806L150.056 40.3344C151.395 39.6005 152.516 38.6231 153.409 37.4067L151.797 36.2233ZM149.095 38.5806C148.034 39.1618 146.876 39.455 145.603 39.455V41.455C147.199 41.455 148.69 41.0832 150.056 40.3344L149.095 38.5806ZM145.603 39.455C144.174 39.455 142.888 39.0904 141.721 38.3637L140.664 40.0613C142.157 40.9913 143.811 41.455 145.603 41.455V39.455ZM141.725 38.3658C140.549 37.6273 139.608 36.641 138.893 35.3914L137.157 36.3836C138.03 37.9107 139.199 39.141 140.661 40.0592L141.725 38.3658ZM138.898 35.4C138.205 34.1573 137.853 32.7807 137.853 31.25H135.853C135.853 33.1026 136.283 34.8177 137.152 36.375L138.898 35.4ZM137.853 31.25C137.853 30.0876 138.058 29.0217 138.46 28.0423L136.61 27.2827C136.102 28.5199 135.853 29.8458 135.853 31.25H137.853ZM138.462 28.0389C138.872 27.0284 139.43 26.1548 140.135 25.4091L138.681 24.0359C137.798 24.9702 137.108 26.0566 136.609 27.2861L138.462 28.0389ZM140.134 25.4094C140.85 24.652 141.677 24.0636 142.619 23.6392L141.797 21.8158C140.616 22.3481 139.575 23.0897 138.681 24.0356L140.134 25.4094ZM142.619 23.6392C143.547 23.221 144.538 23.01 145.603 23.01V21.01C144.264 21.01 142.992 21.2774 141.797 21.8158L142.619 23.6392ZM145.603 23.01C146.876 23.01 148.034 23.3032 149.095 23.8844L150.056 22.1306C148.69 21.3818 147.199 21.01 145.603 21.01V23.01ZM149.095 23.8844C150.177 24.4779 151.073 25.2703 151.791 26.2686L153.415 25.1014C152.522 23.8597 151.4 22.8671 150.056 22.1306L149.095 23.8844ZM152.13 24.8038L148.28 26.8688L149.225 28.6312L153.075 26.5662L152.13 24.8038ZM149.505 27.0915C149.005 26.5192 148.406 26.0719 147.717 25.7559L146.884 27.5741C147.314 27.7715 147.684 28.0474 148 28.4085L149.505 27.0915ZM147.724 25.7593C147.048 25.4429 146.338 25.28 145.603 25.28V27.28C146.034 27.28 146.455 27.3737 146.876 27.5707L147.724 25.7593ZM145.603 25.28C144.565 25.28 143.607 25.5723 142.76 26.1568L143.895 27.8032C144.401 27.4543 144.961 27.28 145.603 27.28V25.28ZM142.77 26.1502C141.948 26.7027 141.302 27.4382 140.832 28.3365L142.604 29.2635C142.927 28.6451 143.354 28.1673 143.886 27.8098L142.77 26.1502ZM140.835 28.3308C140.357 29.2291 140.123 30.208 140.123 31.25H142.123C142.123 30.5187 142.285 29.8642 142.601 29.2692L140.835 28.3308ZM140.123 31.25C140.123 32.2827 140.358 33.2588 140.832 34.1635L142.604 33.2365C142.284 32.6245 142.123 31.9673 142.123 31.25H140.123ZM140.835 34.1692C141.305 35.0554 141.952 35.7822 142.77 36.3323L143.886 34.6727C143.351 34.3128 142.923 33.8379 142.601 33.2308L140.835 34.1692ZM142.77 36.3323C143.617 36.9018 144.57 37.185 145.603 37.185V35.185C144.955 35.185 144.392 35.0132 143.886 34.6727L142.77 36.3323ZM145.603 37.185C146.356 37.185 147.078 37.0246 147.759 36.7057L146.911 34.8943C146.496 35.0887 146.063 35.185 145.603 35.185V37.185ZM147.775 36.6982C148.436 36.3747 149.013 35.9413 149.498 35.3993L148.007 34.0657C147.699 34.4104 147.331 34.6886 146.896 34.9018L147.775 36.6982ZM156.948 40H155.948V41H156.948V40ZM156.948 13.75V12.75H155.948V13.75H156.948ZM161.218 13.75H162.218V12.75H161.218V13.75ZM161.218 40V41H162.218V40H161.218ZM157.948 40V13.75H155.948V40H157.948ZM156.948 14.75H161.218V12.75H156.948V14.75ZM160.218 13.75V40H162.218V13.75H160.218ZM161.218 39H156.948V41H161.218V39ZM177.983 22.5V21.5H177.284L177.044 22.156L177.983 22.5ZM182.515 22.5L183.455 22.8426L183.945 21.5H182.515V22.5ZM172.943 48.75V49.75H173.643L173.882 49.0926L172.943 48.75ZM168.41 48.75L167.47 48.4096L166.985 49.75H168.41V48.75ZM171.578 40L172.518 40.3404L172.641 40.0009L172.519 39.6613L171.578 40ZM165.278 22.5V21.5H163.855L164.337 22.8387L165.278 22.5ZM169.95 22.5L170.902 22.1928L170.678 21.5H169.95V22.5ZM173.713 34.155L172.761 34.4622L173.653 37.225L174.652 34.499L173.713 34.155ZM177.983 23.5H182.515V21.5H177.983V23.5ZM181.576 22.1574L172.003 48.4074L173.882 49.0926L183.455 22.8426L181.576 22.1574ZM172.943 47.75H168.41V49.75H172.943V47.75ZM169.351 49.0904L172.518 40.3404L170.638 39.6596L167.47 48.4096L169.351 49.0904ZM172.519 39.6613L166.219 22.1613L164.337 22.8387L170.637 40.3387L172.519 39.6613ZM165.278 23.5H169.95V21.5H165.278V23.5ZM168.999 22.8072L172.761 34.4622L174.665 33.8478L170.902 22.1928L168.999 22.8072ZM174.652 34.499L178.922 22.844L177.044 22.156L172.774 33.811L174.652 34.499ZM200.697 23.2525L200.188 24.1131L200.188 24.1131L200.697 23.2525ZM204.039 26.595L203.179 27.1042L203.181 27.1074L204.039 26.595ZM204.564 34.8025L203.645 34.4097L203.645 34.4097L204.564 34.8025ZM202.569 37.76L203.276 38.4671L203.276 38.4671L202.569 37.76ZM199.629 39.7375L199.237 38.8179L199.233 38.8194L199.629 39.7375ZM193.119 39.72L192.607 40.5785L192.614 40.5827L192.621 40.5868L193.119 39.72ZM191.002 37.7775L191.813 37.1929L190.002 34.6792V37.7775H191.002ZM191.002 40V41H192.002V40H191.002ZM186.732 40H185.732V41H186.732V40ZM186.732 13.75V12.75H185.732V13.75H186.732ZM191.002 13.75H192.002V12.75H191.002V13.75ZM191.002 24.6875H190.002V27.7858L191.813 25.2721L191.002 24.6875ZM193.119 22.7625L193.623 23.6263L193.627 23.6241L193.119 22.7625ZM198.457 35.6425L198.983 36.4928L198.987 36.4905L198.457 35.6425ZM200.242 33.7875L199.375 33.2885L199.375 33.2885L200.242 33.7875ZM200.242 28.66L199.372 29.1534L199.375 29.159L200.242 28.66ZM198.457 26.805L197.936 27.6589L197.936 27.6589L198.457 26.805ZM193.609 26.8225L194.154 27.661L194.164 27.6545L193.609 26.8225ZM191.964 28.6775L192.853 29.1355L192.856 29.13L191.964 28.6775ZM191.964 33.805L191.073 34.2575L191.075 34.263L191.964 33.805ZM193.609 35.6425L194.154 34.8041L193.609 35.6425ZM196.042 23.01C197.575 23.01 198.949 23.3804 200.188 24.1131L201.206 22.3919C199.644 21.4679 197.916 21.01 196.042 21.01V23.01ZM200.188 24.1131C201.443 24.8558 202.436 25.8491 203.179 27.1042L204.9 26.0858C203.986 24.5409 202.751 23.3059 201.206 22.3919L200.188 24.1131ZM203.181 27.1074C203.912 28.3334 204.282 29.695 204.282 31.215H206.282C206.282 29.3517 205.823 27.6332 204.898 26.0826L203.181 27.1074ZM204.282 31.215C204.282 32.3577 204.068 33.4194 203.645 34.4097L205.484 35.1953C206.018 33.9456 206.282 32.6156 206.282 31.215H204.282ZM203.645 34.4097C203.216 35.4137 202.623 36.2925 201.862 37.0529L203.276 38.4671C204.219 37.5242 204.956 36.4313 205.484 35.1953L203.645 34.4097ZM201.862 37.0529C201.115 37.8003 200.242 38.3884 199.237 38.8179L200.022 40.6571C201.256 40.13 202.344 39.3997 203.276 38.4671L201.862 37.0529ZM199.233 38.8194C198.258 39.2403 197.198 39.455 196.042 39.455V41.455C197.453 41.455 198.784 41.1913 200.026 40.6556L199.233 38.8194ZM196.042 39.455C195.099 39.455 194.301 39.2461 193.618 38.8532L192.621 40.5868C193.641 41.1739 194.791 41.455 196.042 41.455V39.455ZM193.632 38.8615C192.909 38.4297 192.305 37.8754 191.813 37.1929L190.191 38.3621C190.842 39.2662 191.649 40.0069 192.607 40.5785L193.632 38.8615ZM190.002 37.7775V40H192.002V37.7775H190.002ZM191.002 39H186.732V41H191.002V39ZM187.732 40V13.75H185.732V40H187.732ZM186.732 14.75H191.002V12.75H186.732V14.75ZM190.002 13.75V24.6875H192.002V13.75H190.002ZM191.813 25.2721C192.303 24.5917 192.905 24.0454 193.623 23.6263L192.615 21.8987C191.654 22.4596 190.844 23.1967 190.191 24.1029L191.813 25.2721ZM193.627 23.6241C194.308 23.2227 195.104 23.01 196.042 23.01V21.01C194.787 21.01 193.634 21.2989 192.612 21.9009L193.627 23.6241ZM195.989 37.325C197.075 37.325 198.082 37.0509 198.983 36.4928L197.93 34.7922C197.362 35.1441 196.724 35.325 195.989 35.325V37.325ZM198.987 36.4905C199.874 35.936 200.584 35.1973 201.108 34.2865L199.375 33.2885C199.013 33.9177 198.533 34.4156 197.927 34.7945L198.987 36.4905ZM201.108 34.2865C201.645 33.355 201.907 32.3236 201.907 31.215H199.907C199.907 31.9964 199.726 32.68 199.375 33.2885L201.108 34.2865ZM201.907 31.215C201.907 30.1157 201.644 29.0906 201.108 28.161L199.375 29.159C199.727 29.7694 199.907 30.4476 199.907 31.215H201.907ZM201.112 28.1667C200.587 27.2413 199.873 26.4971 198.977 25.9511L197.936 27.6589C198.534 28.0229 199.01 28.5154 199.372 29.1533L201.112 28.1667ZM198.977 25.9511C198.069 25.3978 197.066 25.1225 195.989 25.1225V27.1225C196.709 27.1225 197.351 27.3022 197.936 27.6589L198.977 25.9511ZM195.989 25.1225C194.916 25.1225 193.928 25.4082 193.055 25.9904L194.164 27.6545C194.691 27.3035 195.289 27.1225 195.989 27.1225V25.1225ZM193.064 25.9841C192.209 26.5398 191.545 27.2945 191.073 28.225L192.856 29.13C193.177 28.4971 193.609 28.0152 194.154 27.6609L193.064 25.9841ZM191.075 28.2195C190.601 29.1402 190.369 30.1445 190.369 31.215H192.369C192.369 30.4422 192.534 29.7548 192.853 29.1355L191.075 28.2195ZM190.369 31.215C190.369 32.3047 190.599 33.3248 191.073 34.2575L192.856 33.3525C192.536 32.7218 192.369 32.0153 192.369 31.215H190.369ZM191.075 34.263C191.549 35.1815 192.213 35.9275 193.064 36.4809L194.154 34.8041C193.606 34.4475 193.173 33.9685 192.853 33.347L191.075 34.263ZM193.064 36.4809C193.937 37.048 194.922 37.325 195.989 37.325V35.325C195.284 35.325 194.682 35.147 194.154 34.8041L193.064 36.4809ZM209.4 22.5V21.5H208.4V22.5H209.4ZM213.67 22.5H214.67V21.5H213.67V22.5ZM213.67 40V41H214.67V40H213.67ZM209.4 40H208.4V41H209.4V40ZM209.977 19.63L209.28 20.3468L209.29 20.3565L209.977 19.63ZM209.977 16.4975L210.675 17.2142L210.675 17.2142L209.977 16.4975ZM213.11 16.4975L212.403 17.2047L212.412 17.2142L213.11 16.4975ZM213.127 19.63L213.824 20.3471L213.834 20.3371L213.127 19.63ZM209.4 23.5H213.67V21.5H209.4V23.5ZM212.67 22.5V40H214.67V22.5H212.67ZM213.67 39H209.4V41H213.67V39ZM210.4 40V22.5H208.4V40H210.4ZM211.57 19.2425C211.178 19.2425 210.899 19.1249 210.665 18.9035L209.29 20.3565C209.919 20.9518 210.701 21.2425 211.57 21.2425V19.2425ZM210.675 18.9133C210.446 18.691 210.33 18.4289 210.33 18.055H208.33C208.33 18.9411 208.645 19.729 209.28 20.3467L210.675 18.9133ZM210.33 18.055C210.33 17.6985 210.442 17.4404 210.675 17.2142L209.28 15.7808C208.649 16.3946 208.33 17.1748 208.33 18.055H210.33ZM210.675 17.2142C210.914 16.9812 211.187 16.8675 211.552 16.8675V14.8675C210.681 14.8675 209.904 15.1738 209.28 15.7808L210.675 17.2142ZM211.552 16.8675C211.918 16.8675 212.179 16.9806 212.403 17.2046L213.817 15.7904C213.201 15.1744 212.424 14.8675 211.552 14.8675V16.8675ZM212.412 17.2142C212.645 17.4404 212.757 17.6985 212.757 18.055H214.757C214.757 17.1748 214.438 16.3946 213.807 15.7808L212.412 17.2142ZM212.757 18.055C212.757 18.4376 212.64 18.7027 212.42 18.9229L213.834 20.3371C214.454 19.7173 214.757 18.9324 214.757 18.055H212.757ZM212.43 18.913C212.208 19.129 211.944 19.2425 211.57 19.2425V21.2425C212.432 21.2425 213.207 20.9477 213.824 20.347L212.43 18.913ZM229.006 26.77V27.77H230.006V26.77H229.006ZM225.611 26.77V25.77H224.611V26.77H225.611ZM225.611 40V41H226.611V40H225.611ZM221.341 40H220.341V41H221.341V40ZM221.341 26.77H222.341V25.77H221.341V26.77ZM218.751 26.77H217.751V27.77H218.751V26.77ZM218.751 22.5V21.5H217.751V22.5H218.751ZM221.341 22.5V23.5H222.341V22.5H221.341ZM221.341 17.005V16.005H220.341V17.005H221.341ZM225.611 17.005H226.611V16.005H225.611V17.005ZM225.611 22.5H224.611V23.5H225.611V22.5ZM229.006 22.5H230.006V21.5H229.006V22.5ZM229.006 25.77H225.611V27.77H229.006V25.77ZM224.611 26.77V40H226.611V26.77H224.611ZM225.611 39H221.341V41H225.611V39ZM222.341 40V26.77H220.341V40H222.341ZM221.341 25.77H218.751V27.77H221.341V25.77ZM219.751 26.77V22.5H217.751V26.77H219.751ZM218.751 23.5H221.341V21.5H218.751V23.5ZM222.341 22.5V17.005H220.341V22.5H222.341ZM221.341 18.005H225.611V16.005H221.341V18.005ZM224.611 17.005V22.5H226.611V17.005H224.611ZM225.611 23.5H229.006V21.5H225.611V23.5ZM228.006 22.5V26.77H230.006V22.5H228.006Z" fill="white"/>
<path d="M58.1 40H57.1V41H58.1V40ZM58.1 22.5V21.5H57.1V22.5H58.1ZM62.37 22.5H63.37V21.5H62.37V22.5ZM62.37 24.0575H61.37V26.5727L63.097 24.7441L62.37 24.0575ZM64.505 22.57L64.9052 23.4865L64.9159 23.4817L64.505 22.57ZM70.525 22.8675L70.0343 23.7388L70.0385 23.7412L70.525 22.8675ZM72.975 25.16L72.1305 25.6955L72.967 27.0146L73.8148 25.7028L72.975 25.16ZM75.425 22.8675L74.9343 21.9962L75.425 22.8675ZM82.25 22.955L81.7312 23.81L81.7426 23.8167L82.25 22.955ZM84.7525 25.4575L83.8907 25.965L83.8976 25.9762L84.7525 25.4575ZM85.6975 40V41H86.6975V40H85.6975ZM81.4275 40H80.4275V41H81.4275V40ZM80.92 28.2225L80.0518 28.7186L80.0578 28.7292L80.0641 28.7396L80.92 28.2225ZM79.59 26.8575L79.052 27.7004L79.0623 27.707L79.0729 27.7134L79.59 26.8575ZM75.8625 26.84L76.3743 27.6991L76.3796 27.6959L75.8625 26.84ZM74.5325 28.17L73.6766 27.6529L73.6766 27.6529L74.5325 28.17ZM74.025 40V41H75.025V40H74.025ZM69.755 40H68.755V41H69.755V40ZM69.265 28.17L70.1288 27.6661L70.1288 27.6661L69.265 28.17ZM67.935 26.84L67.4179 27.6959L67.4245 27.6999L67.4311 27.7038L67.935 26.84ZM64.2075 26.8575L64.7246 27.7134L64.7311 27.7095L64.7375 27.7055L64.2075 26.8575ZM62.86 28.2225L61.9994 27.7132L61.9962 27.7186L62.86 28.2225ZM62.37 40V41H63.37V40H62.37ZM59.1 40V22.5H57.1V40H59.1ZM58.1 23.5H62.37V21.5H58.1V23.5ZM61.37 22.5V24.0575H63.37V22.5H61.37ZM63.097 24.7441C63.5957 24.2161 64.1947 23.7966 64.9051 23.4865L64.1049 21.6535C63.1586 22.0667 62.3343 22.6389 61.643 23.3709L63.097 24.7441ZM64.9159 23.4817C65.6083 23.1696 66.3599 23.01 67.1825 23.01V21.01C66.0918 21.01 65.0584 21.2237 64.0941 21.6583L64.9159 23.4817ZM67.1825 23.01C68.2313 23.01 69.1754 23.2551 70.0343 23.7388L71.0157 21.9962C69.8446 21.3366 68.5603 21.01 67.1825 21.01V23.01ZM70.0385 23.7412C70.9252 24.2349 71.6165 24.885 72.1305 25.6955L73.8195 24.6245C73.1202 23.5216 72.1782 22.6434 71.0115 21.9938L70.0385 23.7412ZM73.8148 25.7028C74.3431 24.8855 75.0387 24.2328 75.9157 23.7388L74.9343 21.9962C73.7813 22.6456 72.8436 23.5212 72.1352 24.6172L73.8148 25.7028ZM75.9157 23.7388C76.7746 23.2551 77.7187 23.01 78.7675 23.01V21.01C77.3897 21.01 76.1054 21.3366 74.9343 21.9962L75.9157 23.7388ZM78.7675 23.01C79.8787 23.01 80.8583 23.2803 81.7313 23.8099L82.7687 22.1001C81.565 21.3697 80.2229 21.01 78.7675 21.01V23.01ZM81.7426 23.8167C82.6463 24.3489 83.3586 25.0612 83.8908 25.9649L85.6142 24.9501C84.9097 23.7538 83.9537 22.7978 82.7574 22.0933L81.7426 23.8167ZM83.8976 25.9762C84.4272 26.8492 84.6975 27.8288 84.6975 28.94H86.6975C86.6975 27.4846 86.3378 26.1425 85.6074 24.9388L83.8976 25.9762ZM84.6975 28.94V40H86.6975V28.94H84.6975ZM85.6975 39H81.4275V41H85.6975V39ZM82.4275 40V30.0775H80.4275V40H82.4275ZM82.4275 30.0775C82.4275 29.2251 82.2118 28.4269 81.7759 27.7054L80.0641 28.7396C80.3048 29.1381 80.4275 29.5766 80.4275 30.0775H82.4275ZM81.7882 27.7264C81.3776 27.0078 80.8139 26.4286 80.1071 26.0016L79.0729 27.7134C79.4861 27.9631 79.809 28.2939 80.0518 28.7186L81.7882 27.7264ZM80.128 26.0146C79.4095 25.5559 78.6024 25.3325 77.735 25.3325V27.3325C78.2443 27.3325 78.6739 27.4591 79.052 27.7004L80.128 26.0146ZM77.735 25.3325C76.8743 25.3325 76.0697 25.5465 75.3454 25.9841L76.3796 27.6959C76.7753 27.4568 77.219 27.3325 77.735 27.3325V25.3325ZM75.3507 25.9809C74.6577 26.3938 74.0976 26.956 73.6766 27.6529L75.3884 28.6871C75.6441 28.264 75.9706 27.9396 76.3743 27.6991L75.3507 25.9809ZM73.6766 27.6529C73.2358 28.3825 73.025 29.2001 73.025 30.0775H75.025C75.025 29.5316 75.1525 29.0775 75.3884 28.6871L73.6766 27.6529ZM73.025 30.0775V40H75.025V30.0775H73.025ZM74.025 39H69.755V41H74.025V39ZM70.755 40V30.0775H68.755V40H70.755ZM70.755 30.0775C70.755 29.2066 70.5532 28.3937 70.1288 27.6661L68.4012 28.6739C68.6301 29.0663 68.755 29.5251 68.755 30.0775H70.755ZM70.1288 27.6661C69.7152 26.9571 69.1479 26.3898 68.4389 25.9762L67.4311 27.7038C67.8421 27.9435 68.1615 28.2629 68.4012 28.6739L70.1288 27.6661ZM68.4521 25.9841C67.7278 25.5465 66.9232 25.3325 66.0625 25.3325V27.3325C66.5785 27.3325 67.0222 27.4568 67.4179 27.6959L68.4521 25.9841ZM66.0625 25.3325C65.2033 25.3325 64.4005 25.5576 63.6775 26.0095L64.7375 27.7055C65.1345 27.4574 65.5684 27.3325 66.0625 27.3325V25.3325ZM63.6904 26.0016C62.9868 26.4267 62.4205 27.0017 61.9994 27.7132L63.7206 28.7318C63.9761 28.3 64.3082 27.965 64.7246 27.7134L63.6904 26.0016ZM61.9962 27.7186C61.5764 28.4384 61.37 29.2319 61.37 30.0775H63.37C63.37 29.5698 63.4903 29.1266 63.7238 28.7264L61.9962 27.7186ZM61.37 30.0775V40H63.37V30.0775H61.37ZM62.37 39H58.1V41H62.37V39ZM90.2535 22.5V21.5H89.2535V22.5H90.2535ZM94.5235 22.5H95.5235V21.5H94.5235V22.5ZM95.031 34.295L94.1704 34.8043L94.1751 34.8121L95.031 34.295ZM96.3785 35.6425L95.8614 36.4984L95.8718 36.5047L95.8824 36.5107L96.3785 35.6425ZM100.141 35.6425L100.645 36.5063L100.652 36.5024L100.658 36.4984L100.141 35.6425ZM101.489 34.295L102.344 34.8121L102.349 34.8043L101.489 34.295ZM101.996 22.5V21.5H100.996V22.5H101.996ZM106.266 22.5L107.266 22.499L107.265 21.5H106.266V22.5ZM106.284 40V41H107.285L107.284 39.999L106.284 40ZM102.014 40L101.014 40.011L101.024 41H102.014V40ZM101.996 38.4075L102.996 38.3965L102.969 35.9553L101.276 37.7139L101.996 38.4075ZM99.8435 39.9125L100.244 40.829L100.254 40.8242L99.8435 39.9125ZM93.701 39.5275L93.1865 40.385L93.1936 40.3892L93.701 39.5275ZM91.181 37.025L90.3193 37.5325L90.3261 37.5437L91.181 37.025ZM91.2535 33.525V22.5H89.2535V33.525H91.2535ZM90.2535 23.5H94.5235V21.5H90.2535V23.5ZM93.5235 22.5V32.405H95.5235V22.5H93.5235ZM93.5235 32.405C93.5235 33.2657 93.7374 34.0727 94.1704 34.8043L95.8916 33.7857C95.6479 33.374 95.5235 32.9209 95.5235 32.405H93.5235ZM94.1751 34.8121C94.5972 35.5108 95.1627 36.0763 95.8614 36.4984L96.8956 34.7866C96.4744 34.5321 96.1415 34.1992 95.8869 33.7779L94.1751 34.8121ZM95.8824 36.5107C96.6095 36.9262 97.4054 37.1325 98.251 37.1325V35.1325C97.7433 35.1325 97.2909 35.0121 96.8747 34.7743L95.8824 36.5107ZM98.251 37.1325C99.1135 37.1325 99.9198 36.9292 100.645 36.5063L99.6371 34.7787C99.2422 35.0091 98.7885 35.1325 98.251 35.1325V37.1325ZM100.658 36.4984C101.357 36.0763 101.922 35.5108 102.344 34.8121L100.633 33.7779C100.378 34.1992 100.045 34.5321 99.6239 34.7866L100.658 36.4984ZM102.349 34.8043C102.782 34.0727 102.996 33.2657 102.996 32.405H100.996C100.996 32.9209 100.872 33.374 100.628 33.7857L102.349 34.8043ZM102.996 32.405V22.5H100.996V32.405H102.996ZM101.996 23.5H106.266V21.5H101.996V23.5ZM105.266 22.501L105.284 40.001L107.284 39.999L107.266 22.499L105.266 22.501ZM106.284 39H102.014V41H106.284V39ZM103.013 39.989L102.996 38.3965L100.996 38.4185L101.014 40.011L103.013 39.989ZM101.276 37.7139C100.761 38.2486 100.149 38.6777 99.4326 39.0008L100.254 40.8242C101.194 40.4006 102.018 39.8264 102.716 39.1011L101.276 37.7139ZM99.4434 38.996C98.747 39.3001 97.9972 39.455 97.1835 39.455V41.455C98.2598 41.455 99.2834 41.2482 100.244 40.829L99.4434 38.996ZM97.1835 39.455C96.0822 39.455 95.0978 39.1896 94.2085 38.6658L93.1936 40.3892C94.4042 41.1021 95.7415 41.455 97.1835 41.455V39.455ZM94.2155 38.67C93.3036 38.1229 92.581 37.4045 92.036 36.5063L90.3261 37.5437C91.0411 38.7221 91.9984 39.6721 93.1865 40.385L94.2155 38.67ZM92.0427 36.5176C91.5198 35.6296 91.2535 34.6398 91.2535 33.525H89.2535C89.2535 34.9769 89.6056 36.3204 90.3193 37.5324L92.0427 36.5176ZM116.699 40.315L116.776 39.3179L116.763 39.317L116.699 40.315ZM114.057 39.7725L113.705 40.7088L113.713 40.7117L113.721 40.7145L114.057 39.7725ZM111.817 38.495L112.451 37.7223L112.451 37.7223L111.817 38.495ZM110.312 36.57L109.919 35.6504L108.967 36.0571L109.406 36.9944L110.312 36.57ZM113.917 35.03L114.774 34.5155L114.325 33.7679L113.524 34.1104L113.917 35.03ZM114.599 35.7825L113.951 36.5437L113.959 36.5508L113.967 36.5577L114.599 35.7825ZM115.719 36.43L115.343 37.3568L115.352 37.3602L115.719 36.43ZM118.432 36.5175L118.714 37.4769L118.723 37.4743L118.731 37.4715L118.432 36.5175ZM119.412 35.94L118.704 35.2329L118.696 35.2411L118.688 35.2495L119.412 35.94ZM119.342 33.945L118.698 34.7107L118.715 34.7245L118.732 34.7376L119.342 33.945ZM118.222 33.4025L117.943 34.3631L117.958 34.3673L117.973 34.3712L118.222 33.4025ZM116.927 33.0525L117.169 32.0824L117.146 32.0766L117.123 32.0719L116.927 33.0525ZM113.829 32.02L113.386 32.9166L113.391 32.9188L113.829 32.02ZM111.537 30.2175L110.743 30.8254L110.748 30.8323L110.753 30.8392L111.537 30.2175ZM111.589 24.53L110.784 23.9372L110.778 23.9445L111.589 24.53ZM113.987 22.5875L113.569 21.6786L113.565 21.6805L113.987 22.5875ZM121.004 22.78L120.553 23.6727L120.564 23.678L121.004 22.78ZM123.769 25.2125L124.278 26.0735L125.173 25.5447L124.61 24.6708L123.769 25.2125ZM120.392 27.2075L119.528 27.7114L120.034 28.5799L120.9 28.0685L120.392 27.2075ZM119.709 26.4375L119.066 27.2032L119.075 27.2109L119.084 27.2184L119.709 26.4375ZM118.712 25.8425L118.311 26.7587L118.323 26.764L118.335 26.769L118.712 25.8425ZM117.539 25.5625L117.596 24.564L117.583 24.5635L117.539 25.5625ZM115.054 26.2975L114.332 25.6056L114.324 25.6136L114.317 25.6218L115.054 26.2975ZM115.194 28.415L114.659 29.2598L114.669 29.2663L114.68 29.2725L115.194 28.415ZM116.454 28.905L116.222 29.8778L116.228 29.879L116.454 28.905ZM117.889 29.29L118.202 28.3402L118.193 28.3371L118.183 28.3342L117.889 29.29ZM120.777 30.5325L120.298 31.4104L120.302 31.413L120.777 30.5325ZM122.964 32.335L123.756 31.7247L123.756 31.7247L122.964 32.335ZM123.752 34.89L122.752 34.8665L122.752 34.8782V34.89H123.752ZM122.737 37.865L123.515 38.4923L123.519 38.4871L122.737 37.865ZM120.112 39.79L119.73 38.8657L119.726 38.8672L120.112 39.79ZM116.763 39.317C115.945 39.2646 115.155 39.1024 114.392 38.8305L113.721 40.7145C114.661 41.0493 115.633 41.2487 116.635 41.313L116.763 39.317ZM114.408 38.8362C113.664 38.5574 113.015 38.185 112.451 37.7223L111.182 39.2677C111.925 39.8783 112.769 40.3576 113.705 40.7088L114.408 38.8362ZM112.451 37.7223C111.91 37.2776 111.502 36.754 111.217 36.1456L109.406 36.9944C109.821 37.8794 110.416 38.639 111.182 39.2677L112.451 37.7223ZM110.704 37.4896L114.309 35.9496L113.524 34.1104L109.919 35.6504L110.704 37.4896ZM113.059 35.5445C113.276 35.906 113.591 36.2377 113.951 36.5437L115.247 35.0213C114.977 34.7906 114.837 34.6206 114.774 34.5155L113.059 35.5445ZM113.967 36.5577C114.37 36.8858 114.833 37.1497 115.343 37.3567L116.095 35.5033C115.742 35.3603 115.458 35.1925 115.231 35.0073L113.967 36.5577ZM115.352 37.3602C115.923 37.5858 116.534 37.6925 117.172 37.6925V35.6925C116.759 35.6925 116.401 35.6242 116.086 35.4998L115.352 37.3602ZM117.172 37.6925C117.703 37.6925 118.219 37.6224 118.714 37.4769L118.149 35.5581C117.851 35.646 117.526 35.6925 117.172 35.6925V37.6925ZM118.731 37.4715C119.268 37.3029 119.751 37.0322 120.135 36.6305L118.688 35.2495C118.582 35.3611 118.412 35.4754 118.132 35.5635L118.731 37.4715ZM120.119 36.6471C120.587 36.1788 120.797 35.5799 120.797 34.9425H118.797C118.797 35.1218 118.749 35.1879 118.704 35.2329L120.119 36.6471ZM120.797 34.9425C120.797 34.2457 120.534 33.601 119.951 33.1524L118.732 34.7376C118.76 34.7596 118.768 34.7737 118.773 34.7844C118.78 34.7989 118.797 34.8442 118.797 34.9425H120.797ZM119.985 33.1793C119.555 32.8181 119.037 32.5792 118.47 32.4338L117.973 34.3712C118.316 34.4591 118.545 34.5819 118.698 34.7107L119.985 33.1793ZM118.5 32.4419C118.045 32.3104 117.602 32.1905 117.169 32.0824L116.684 34.0226C117.091 34.1245 117.511 34.2379 117.943 34.3631L118.5 32.4419ZM117.123 32.0719C116.093 31.866 115.143 31.5481 114.267 31.1212L113.391 32.9188C114.429 33.4252 115.543 33.7957 116.73 34.0331L117.123 32.0719ZM114.272 31.1234C113.443 30.714 112.801 30.2016 112.32 29.5958L110.753 30.8392C111.439 31.7034 112.325 32.3927 113.386 32.9166L114.272 31.1234ZM112.331 29.6096C111.908 29.0577 111.679 28.3797 111.679 27.5225H109.679C109.679 28.7653 110.022 29.884 110.743 30.8254L112.331 29.6096ZM111.679 27.5225C111.679 26.5525 111.93 25.7657 112.4 25.1155L110.778 23.9445C110.035 24.9743 109.679 26.1825 109.679 27.5225H111.679ZM112.394 25.1228C112.909 24.4231 113.574 23.8814 114.408 23.4945L113.565 21.6805C112.439 22.2036 111.505 22.9569 110.784 23.9372L112.394 25.1228ZM114.404 23.4964C115.258 23.1043 116.183 22.905 117.189 22.905V20.905C115.909 20.905 114.698 21.1607 113.57 21.6786L114.404 23.4964ZM117.189 22.905C118.432 22.905 119.548 23.165 120.553 23.6726L121.455 21.8874C120.15 21.2284 118.722 20.905 117.189 20.905V22.905ZM120.564 23.678C121.574 24.1729 122.354 24.8635 122.928 25.7542L124.61 24.6708C123.83 23.4615 122.767 22.5304 121.444 21.882L120.564 23.678ZM123.26 24.3515L119.883 26.3465L120.9 28.0685L124.278 26.0735L123.26 24.3515ZM121.255 26.7036C121.021 26.3025 120.707 25.9553 120.334 25.6566L119.084 27.2184C119.294 27.3864 119.435 27.5525 119.528 27.7114L121.255 26.7036ZM120.352 25.6718C119.976 25.3558 119.552 25.1047 119.088 24.916L118.335 26.769C118.617 26.8836 118.859 27.0292 119.066 27.2032L120.352 25.6718ZM119.112 24.9263C118.63 24.7152 118.123 24.5942 117.596 24.5641L117.482 26.5609C117.772 26.5775 118.047 26.6431 118.311 26.7587L119.112 24.9263ZM117.583 24.5635C116.973 24.5364 116.39 24.5894 115.843 24.7371L116.365 26.6679C116.682 26.5823 117.055 26.542 117.495 26.5615L117.583 24.5635ZM115.843 24.7371C115.263 24.8939 114.745 25.1751 114.332 25.6056L115.776 26.9894C115.9 26.8599 116.082 26.7444 116.365 26.6679L115.843 24.7371ZM114.317 25.6218C113.855 26.1261 113.669 26.7606 113.669 27.4175H115.669C115.669 27.1411 115.74 27.0289 115.791 26.9732L114.317 25.6218ZM113.669 27.4175C113.669 28.1747 113.996 28.8399 114.659 29.2598L115.729 27.5702C115.706 27.5553 115.694 27.5446 115.69 27.5402C115.687 27.5363 115.686 27.5346 115.685 27.5336C115.685 27.5325 115.681 27.5256 115.677 27.5092C115.673 27.4921 115.669 27.4626 115.669 27.4175H113.669ZM114.68 29.2725C115.135 29.5458 115.655 29.7427 116.222 29.8778L116.686 27.9322C116.273 27.8339 115.953 27.7042 115.709 27.5575L114.68 29.2725ZM116.228 29.879C116.708 29.9908 117.164 30.1132 117.595 30.2458L118.183 28.3342C117.704 28.1868 117.203 28.0525 116.681 27.931L116.228 29.879ZM117.576 30.2398C118.549 30.5602 119.455 30.9509 120.298 31.4104L121.255 29.6546C120.301 29.1341 119.283 28.6964 118.202 28.3402L117.576 30.2398ZM120.302 31.413C121.107 31.8463 121.721 32.3606 122.172 32.9453L123.756 31.7247C123.11 30.886 122.266 30.1987 121.251 29.652L120.302 31.413ZM122.172 32.9453C122.566 33.4566 122.77 34.0783 122.752 34.8665L124.751 34.9135C124.779 33.7184 124.459 32.6368 123.756 31.7247L122.172 32.9453ZM122.752 34.89C122.752 35.8056 122.484 36.5757 121.954 37.2429L123.519 38.4871C124.343 37.451 124.752 36.2377 124.752 34.89H122.752ZM121.958 37.2377C121.394 37.937 120.66 38.4814 119.73 38.8657L120.493 40.7143C121.71 40.2119 122.725 39.473 123.515 38.4923L121.958 37.2377ZM119.726 38.8672C118.819 39.2461 117.841 39.3999 116.776 39.3179L116.622 41.3121C117.984 41.4168 119.281 41.2206 120.497 40.7128L119.726 38.8672ZM128.086 22.5V21.5H127.086V22.5H128.086ZM132.356 22.5H133.356V21.5H132.356V22.5ZM132.356 40V41H133.356V40H132.356ZM128.086 40H127.086V41H128.086V40ZM128.664 19.63L127.966 20.3468L127.977 20.3565L128.664 19.63ZM128.664 16.4975L129.361 17.2142L129.361 17.2142L128.664 16.4975ZM131.796 16.4975L131.089 17.2047L131.099 17.2142L131.796 16.4975ZM131.814 19.63L132.511 20.3471L132.521 20.3371L131.814 19.63ZM128.086 23.5H132.356V21.5H128.086V23.5ZM131.356 22.5V40H133.356V22.5H131.356ZM132.356 39H128.086V41H132.356V39ZM129.086 40V22.5H127.086V40H129.086ZM130.256 19.2425C129.865 19.2425 129.585 19.1249 129.351 18.9035L127.977 20.3565C128.606 20.9518 129.388 21.2425 130.256 21.2425V19.2425ZM129.361 18.9133C129.133 18.691 129.016 18.4289 129.016 18.055H127.016C127.016 18.9411 127.332 19.729 127.966 20.3467L129.361 18.9133ZM129.016 18.055C129.016 17.6985 129.129 17.4404 129.361 17.2142L127.966 15.7808C127.336 16.3946 127.016 17.1748 127.016 18.055H129.016ZM129.361 17.2142C129.601 16.9812 129.873 16.8675 130.239 16.8675V14.8675C129.368 14.8675 128.59 15.1738 127.966 15.7808L129.361 17.2142ZM130.239 16.8675C130.604 16.8675 130.865 16.9806 131.089 17.2046L132.503 15.7904C131.887 15.1744 131.11 14.8675 130.239 14.8675V16.8675ZM131.099 17.2142C131.331 17.4404 131.444 17.6985 131.444 18.055H133.444C133.444 17.1748 133.125 16.3946 132.494 15.7808L131.099 17.2142ZM131.444 18.055C131.444 18.4376 131.327 18.7027 131.107 18.9229L132.521 20.3371C133.141 19.7173 133.444 18.9324 133.444 18.055H131.444ZM131.117 18.913C130.895 19.129 130.63 19.2425 130.256 19.2425V21.2425C131.119 21.2425 131.893 20.9477 132.511 20.347L131.117 18.913ZM148.753 34.7325L149.229 33.8529L148.534 33.4773L148.007 34.0657L148.753 34.7325ZM152.603 36.815L153.409 37.4067L154.088 36.4815L153.079 35.9354L152.603 36.815ZM149.575 39.4575L150.056 40.3344L150.056 40.3344L149.575 39.4575ZM141.193 39.2125L140.661 40.0592L140.664 40.0613L141.193 39.2125ZM138.025 35.8875L137.152 36.375L137.157 36.3836L138.025 35.8875ZM137.535 27.6625L138.46 28.0423L138.462 28.0389L137.535 27.6625ZM139.408 24.7225L138.681 24.0356L138.681 24.0359L139.408 24.7225ZM142.208 22.7275L141.797 21.8158L141.797 21.8158L142.208 22.7275ZM149.575 23.0075L150.056 22.1306L150.056 22.1306L149.575 23.0075ZM152.603 25.685L153.075 26.5662L154.08 26.0273L153.415 25.1014L152.603 25.685ZM148.753 27.75L148 28.4085L148.524 29.0074L149.225 28.6312L148.753 27.75ZM147.3 26.665L146.876 27.5707L146.884 27.5741L147.3 26.665ZM143.328 26.98L143.886 27.8099L143.895 27.8032L143.328 26.98ZM141.718 28.8L142.601 29.2692L142.604 29.2635L141.718 28.8ZM141.718 33.7L140.832 34.1635L140.835 34.1692L141.718 33.7ZM143.328 35.5025L142.77 36.3323L142.77 36.3323L143.328 35.5025ZM147.335 35.8L147.759 36.7057L147.767 36.702L147.775 36.6982L147.335 35.8ZM148.277 35.6121L152.127 37.6946L153.079 35.9354L149.229 33.8529L148.277 35.6121ZM151.797 36.2233C151.079 37.2002 150.182 37.9845 149.095 38.5806L150.056 40.3344C151.395 39.6005 152.516 38.6231 153.409 37.4067L151.797 36.2233ZM149.095 38.5806C148.034 39.1618 146.876 39.455 145.603 39.455V41.455C147.199 41.455 148.69 41.0832 150.056 40.3344L149.095 38.5806ZM145.603 39.455C144.174 39.455 142.888 39.0904 141.721 38.3637L140.664 40.0613C142.157 40.9913 143.811 41.455 145.603 41.455V39.455ZM141.725 38.3658C140.549 37.6273 139.608 36.641 138.893 35.3914L137.157 36.3836C138.03 37.9107 139.199 39.141 140.661 40.0592L141.725 38.3658ZM138.898 35.4C138.205 34.1573 137.853 32.7807 137.853 31.25H135.853C135.853 33.1026 136.283 34.8177 137.152 36.375L138.898 35.4ZM137.853 31.25C137.853 30.0876 138.058 29.0217 138.46 28.0423L136.61 27.2827C136.102 28.5199 135.853 29.8458 135.853 31.25H137.853ZM138.462 28.0389C138.872 27.0284 139.43 26.1548 140.135 25.4091L138.681 24.0359C137.798 24.9702 137.108 26.0566 136.609 27.2861L138.462 28.0389ZM140.134 25.4094C140.85 24.652 141.677 24.0636 142.619 23.6392L141.797 21.8158C140.616 22.3481 139.575 23.0897 138.681 24.0356L140.134 25.4094ZM142.619 23.6392C143.547 23.221 144.538 23.01 145.603 23.01V21.01C144.264 21.01 142.992 21.2774 141.797 21.8158L142.619 23.6392ZM145.603 23.01C146.876 23.01 148.034 23.3032 149.095 23.8844L150.056 22.1306C148.69 21.3818 147.199 21.01 145.603 21.01V23.01ZM149.095 23.8844C150.177 24.4779 151.073 25.2703 151.791 26.2686L153.415 25.1014C152.522 23.8597 151.4 22.8671 150.056 22.1306L149.095 23.8844ZM152.13 24.8038L148.28 26.8688L149.225 28.6312L153.075 26.5662L152.13 24.8038ZM149.505 27.0915C149.005 26.5192 148.406 26.0719 147.717 25.7559L146.884 27.5741C147.314 27.7715 147.684 28.0474 148 28.4085L149.505 27.0915ZM147.724 25.7593C147.048 25.4429 146.338 25.28 145.603 25.28V27.28C146.034 27.28 146.455 27.3737 146.876 27.5707L147.724 25.7593ZM145.603 25.28C144.565 25.28 143.607 25.5723 142.76 26.1568L143.895 27.8032C144.401 27.4543 144.961 27.28 145.603 27.28V25.28ZM142.77 26.1502C141.948 26.7027 141.302 27.4382 140.832 28.3365L142.604 29.2635C142.927 28.6451 143.354 28.1673 143.886 27.8098L142.77 26.1502ZM140.835 28.3308C140.357 29.2291 140.123 30.208 140.123 31.25H142.123C142.123 30.5187 142.285 29.8642 142.601 29.2692L140.835 28.3308ZM140.123 31.25C140.123 32.2827 140.358 33.2588 140.832 34.1635L142.604 33.2365C142.284 32.6245 142.123 31.9673 142.123 31.25H140.123ZM140.835 34.1692C141.305 35.0554 141.952 35.7822 142.77 36.3323L143.886 34.6727C143.351 34.3128 142.923 33.8379 142.601 33.2308L140.835 34.1692ZM142.77 36.3323C143.617 36.9018 144.57 37.185 145.603 37.185V35.185C144.955 35.185 144.392 35.0132 143.886 34.6727L142.77 36.3323ZM145.603 37.185C146.356 37.185 147.078 37.0246 147.759 36.7057L146.911 34.8943C146.496 35.0887 146.063 35.185 145.603 35.185V37.185ZM147.775 36.6982C148.436 36.3747 149.013 35.9413 149.498 35.3993L148.007 34.0657C147.699 34.4104 147.331 34.6886 146.896 34.9018L147.775 36.6982ZM156.948 40H155.948V41H156.948V40ZM156.948 13.75V12.75H155.948V13.75H156.948ZM161.218 13.75H162.218V12.75H161.218V13.75ZM161.218 40V41H162.218V40H161.218ZM157.948 40V13.75H155.948V40H157.948ZM156.948 14.75H161.218V12.75H156.948V14.75ZM160.218 13.75V40H162.218V13.75H160.218ZM161.218 39H156.948V41H161.218V39ZM177.983 22.5V21.5H177.284L177.044 22.156L177.983 22.5ZM182.515 22.5L183.455 22.8426L183.945 21.5H182.515V22.5ZM172.943 48.75V49.75H173.643L173.882 49.0926L172.943 48.75ZM168.41 48.75L167.47 48.4096L166.985 49.75H168.41V48.75ZM171.578 40L172.518 40.3404L172.641 40.0009L172.519 39.6613L171.578 40ZM165.278 22.5V21.5H163.855L164.337 22.8387L165.278 22.5ZM169.95 22.5L170.902 22.1928L170.678 21.5H169.95V22.5ZM173.713 34.155L172.761 34.4622L173.653 37.225L174.652 34.499L173.713 34.155ZM177.983 23.5H182.515V21.5H177.983V23.5ZM181.576 22.1574L172.003 48.4074L173.882 49.0926L183.455 22.8426L181.576 22.1574ZM172.943 47.75H168.41V49.75H172.943V47.75ZM169.351 49.0904L172.518 40.3404L170.638 39.6596L167.47 48.4096L169.351 49.0904ZM172.519 39.6613L166.219 22.1613L164.337 22.8387L170.637 40.3387L172.519 39.6613ZM165.278 23.5H169.95V21.5H165.278V23.5ZM168.999 22.8072L172.761 34.4622L174.665 33.8478L170.902 22.1928L168.999 22.8072ZM174.652 34.499L178.922 22.844L177.044 22.156L172.774 33.811L174.652 34.499ZM200.697 23.2525L200.188 24.1131L200.188 24.1131L200.697 23.2525ZM204.039 26.595L203.179 27.1042L203.181 27.1074L204.039 26.595ZM204.564 34.8025L203.645 34.4097L203.645 34.4097L204.564 34.8025ZM202.569 37.76L203.276 38.4671L203.276 38.4671L202.569 37.76ZM199.629 39.7375L199.237 38.8179L199.233 38.8194L199.629 39.7375ZM193.119 39.72L192.607 40.5785L192.614 40.5827L192.621 40.5868L193.119 39.72ZM191.002 37.7775L191.813 37.1929L190.002 34.6792V37.7775H191.002ZM191.002 40V41H192.002V40H191.002ZM186.732 40H185.732V41H186.732V40ZM186.732 13.75V12.75H185.732V13.75H186.732ZM191.002 13.75H192.002V12.75H191.002V13.75ZM191.002 24.6875H190.002V27.7858L191.813 25.2721L191.002 24.6875ZM193.119 22.7625L193.623 23.6263L193.627 23.6241L193.119 22.7625ZM198.457 35.6425L198.983 36.4928L198.987 36.4905L198.457 35.6425ZM200.242 33.7875L199.375 33.2885L199.375 33.2885L200.242 33.7875ZM200.242 28.66L199.372 29.1534L199.375 29.159L200.242 28.66ZM198.457 26.805L197.936 27.6589L197.936 27.6589L198.457 26.805ZM193.609 26.8225L194.154 27.661L194.164 27.6545L193.609 26.8225ZM191.964 28.6775L192.853 29.1355L192.856 29.13L191.964 28.6775ZM191.964 33.805L191.073 34.2575L191.075 34.263L191.964 33.805ZM193.609 35.6425L194.154 34.8041L193.609 35.6425ZM196.042 23.01C197.575 23.01 198.949 23.3804 200.188 24.1131L201.206 22.3919C199.644 21.4679 197.916 21.01 196.042 21.01V23.01ZM200.188 24.1131C201.443 24.8558 202.436 25.8491 203.179 27.1042L204.9 26.0858C203.986 24.5409 202.751 23.3059 201.206 22.3919L200.188 24.1131ZM203.181 27.1074C203.912 28.3334 204.282 29.695 204.282 31.215H206.282C206.282 29.3517 205.823 27.6332 204.898 26.0826L203.181 27.1074ZM204.282 31.215C204.282 32.3577 204.068 33.4194 203.645 34.4097L205.484 35.1953C206.018 33.9456 206.282 32.6156 206.282 31.215H204.282ZM203.645 34.4097C203.216 35.4137 202.623 36.2925 201.862 37.0529L203.276 38.4671C204.219 37.5242 204.956 36.4313 205.484 35.1953L203.645 34.4097ZM201.862 37.0529C201.115 37.8003 200.242 38.3884 199.237 38.8179L200.022 40.6571C201.256 40.13 202.344 39.3997 203.276 38.4671L201.862 37.0529ZM199.233 38.8194C198.258 39.2403 197.198 39.455 196.042 39.455V41.455C197.453 41.455 198.784 41.1913 200.026 40.6556L199.233 38.8194ZM196.042 39.455C195.099 39.455 194.301 39.2461 193.618 38.8532L192.621 40.5868C193.641 41.1739 194.791 41.455 196.042 41.455V39.455ZM193.632 38.8615C192.909 38.4297 192.305 37.8754 191.813 37.1929L190.191 38.3621C190.842 39.2662 191.649 40.0069 192.607 40.5785L193.632 38.8615ZM190.002 37.7775V40H192.002V37.7775H190.002ZM191.002 39H186.732V41H191.002V39ZM187.732 40V13.75H185.732V40H187.732ZM186.732 14.75H191.002V12.75H186.732V14.75ZM190.002 13.75V24.6875H192.002V13.75H190.002ZM191.813 25.2721C192.303 24.5917 192.905 24.0454 193.623 23.6263L192.615 21.8987C191.654 22.4596 190.844 23.1967 190.191 24.1029L191.813 25.2721ZM193.627 23.6241C194.308 23.2227 195.104 23.01 196.042 23.01V21.01C194.787 21.01 193.634 21.2989 192.612 21.9009L193.627 23.6241ZM195.989 37.325C197.075 37.325 198.082 37.0509 198.983 36.4928L197.93 34.7922C197.362 35.1441 196.724 35.325 195.989 35.325V37.325ZM198.987 36.4905C199.874 35.936 200.584 35.1973 201.108 34.2865L199.375 33.2885C199.013 33.9177 198.533 34.4156 197.927 34.7945L198.987 36.4905ZM201.108 34.2865C201.645 33.355 201.907 32.3236 201.907 31.215H199.907C199.907 31.9964 199.726 32.68 199.375 33.2885L201.108 34.2865ZM201.907 31.215C201.907 30.1157 201.644 29.0906 201.108 28.161L199.375 29.159C199.727 29.7694 199.907 30.4476 199.907 31.215H201.907ZM201.112 28.1667C200.587 27.2413 199.873 26.4971 198.977 25.9511L197.936 27.6589C198.534 28.0229 199.01 28.5154 199.372 29.1533L201.112 28.1667ZM198.977 25.9511C198.069 25.3978 197.066 25.1225 195.989 25.1225V27.1225C196.709 27.1225 197.351 27.3022 197.936 27.6589L198.977 25.9511ZM195.989 25.1225C194.916 25.1225 193.928 25.4082 193.055 25.9904L194.164 27.6545C194.691 27.3035 195.289 27.1225 195.989 27.1225V25.1225ZM193.064 25.9841C192.209 26.5398 191.545 27.2945 191.073 28.225L192.856 29.13C193.177 28.4971 193.609 28.0152 194.154 27.6609L193.064 25.9841ZM191.075 28.2195C190.601 29.1402 190.369 30.1445 190.369 31.215H192.369C192.369 30.4422 192.534 29.7548 192.853 29.1355L191.075 28.2195ZM190.369 31.215C190.369 32.3047 190.599 33.3248 191.073 34.2575L192.856 33.3525C192.536 32.7218 192.369 32.0153 192.369 31.215H190.369ZM191.075 34.263C191.549 35.1815 192.213 35.9275 193.064 36.4809L194.154 34.8041C193.606 34.4475 193.173 33.9685 192.853 33.347L191.075 34.263ZM193.064 36.4809C193.937 37.048 194.922 37.325 195.989 37.325V35.325C195.284 35.325 194.682 35.147 194.154 34.8041L193.064 36.4809ZM209.4 22.5V21.5H208.4V22.5H209.4ZM213.67 22.5H214.67V21.5H213.67V22.5ZM213.67 40V41H214.67V40H213.67ZM209.4 40H208.4V41H209.4V40ZM209.977 19.63L209.28 20.3468L209.29 20.3565L209.977 19.63ZM209.977 16.4975L210.675 17.2142L210.675 17.2142L209.977 16.4975ZM213.11 16.4975L212.403 17.2047L212.412 17.2142L213.11 16.4975ZM213.127 19.63L213.824 20.3471L213.834 20.3371L213.127 19.63ZM209.4 23.5H213.67V21.5H209.4V23.5ZM212.67 22.5V40H214.67V22.5H212.67ZM213.67 39H209.4V41H213.67V39ZM210.4 40V22.5H208.4V40H210.4ZM211.57 19.2425C211.178 19.2425 210.899 19.1249 210.665 18.9035L209.29 20.3565C209.919 20.9518 210.701 21.2425 211.57 21.2425V19.2425ZM210.675 18.9133C210.446 18.691 210.33 18.4289 210.33 18.055H208.33C208.33 18.9411 208.645 19.729 209.28 20.3467L210.675 18.9133ZM210.33 18.055C210.33 17.6985 210.442 17.4404 210.675 17.2142L209.28 15.7808C208.649 16.3946 208.33 17.1748 208.33 18.055H210.33ZM210.675 17.2142C210.914 16.9812 211.187 16.8675 211.552 16.8675V14.8675C210.681 14.8675 209.904 15.1738 209.28 15.7808L210.675 17.2142ZM211.552 16.8675C211.918 16.8675 212.179 16.9806 212.403 17.2046L213.817 15.7904C213.201 15.1744 212.424 14.8675 211.552 14.8675V16.8675ZM212.412 17.2142C212.645 17.4404 212.757 17.6985 212.757 18.055H214.757C214.757 17.1748 214.438 16.3946 213.807 15.7808L212.412 17.2142ZM212.757 18.055C212.757 18.4376 212.64 18.7027 212.42 18.9229L213.834 20.3371C214.454 19.7173 214.757 18.9324 214.757 18.055H212.757ZM212.43 18.913C212.208 19.129 211.944 19.2425 211.57 19.2425V21.2425C212.432 21.2425 213.207 20.9477 213.824 20.347L212.43 18.913ZM229.006 26.77V27.77H230.006V26.77H229.006ZM225.611 26.77V25.77H224.611V26.77H225.611ZM225.611 40V41H226.611V40H225.611ZM221.341 40H220.341V41H221.341V40ZM221.341 26.77H222.341V25.77H221.341V26.77ZM218.751 26.77H217.751V27.77H218.751V26.77ZM218.751 22.5V21.5H217.751V22.5H218.751ZM221.341 22.5V23.5H222.341V22.5H221.341ZM221.341 17.005V16.005H220.341V17.005H221.341ZM225.611 17.005H226.611V16.005H225.611V17.005ZM225.611 22.5H224.611V23.5H225.611V22.5ZM229.006 22.5H230.006V21.5H229.006V22.5ZM229.006 25.77H225.611V27.77H229.006V25.77ZM224.611 26.77V40H226.611V26.77H224.611ZM225.611 39H221.341V41H225.611V39ZM222.341 40V26.77H220.341V40H222.341ZM221.341 25.77H218.751V27.77H221.341V25.77ZM219.751 26.77V22.5H217.751V26.77H219.751ZM218.751 23.5H221.341V21.5H218.751V23.5ZM222.341 22.5V17.005H220.341V22.5H222.341ZM221.341 18.005H225.611V16.005H221.341V18.005ZM224.611 17.005V22.5H226.611V17.005H224.611ZM225.611 23.5H229.006V21.5H225.611V23.5ZM228.006 22.5V26.77H230.006V22.5H228.006Z" fill="white"/>
</svg>
