<svg width="252" height="62" viewBox="0 0 252 62" fill="none" xmlns="http://www.w3.org/2000/svg">
<circle cx="31" cy="31" r="31" fill="white"/>
<rect x="25" y="15" width="6" height="35" rx="3" fill="#1E1E1E"/>
<rect x="44" y="28" width="6" height="10" rx="3" fill="#252525"/>
<rect x="35" y="23" width="6" height="20" rx="3" fill="#1E1E1E"/>
<rect x="15" y="25" width="6" height="15" rx="3" fill="#1E1E1E"/>
<path d="M68.1 43L72.86 18.5H76.9375L82.625 33.4975L88.33 18.5H92.4075L97.1675 43H92.2325L89.52 28.9475L84.2875 42.755H80.9625L75.7475 28.9475L73.0175 43H68.1ZM100.554 36.595V25.5H105.384V35.265C105.384 35.8833 105.53 36.4433 105.822 36.945C106.125 37.435 106.528 37.8258 107.029 38.1175C107.531 38.4092 108.079 38.555 108.674 38.555C109.281 38.555 109.835 38.4092 110.337 38.1175C110.838 37.8258 111.235 37.435 111.527 36.945C111.818 36.4433 111.964 35.8833 111.964 35.265V25.5H116.794L116.812 43H111.982L111.964 41.67C111.381 42.23 110.693 42.6675 109.899 42.9825C109.118 43.2975 108.289 43.455 107.414 43.455C106.154 43.455 105.005 43.1458 103.967 42.5275C102.928 41.9092 102.1 41.0867 101.482 40.06C100.863 39.0217 100.554 37.8667 100.554 36.595ZM125.419 43.315C124.521 43.245 123.657 43.0583 122.829 42.755C122.001 42.44 121.26 42.02 120.607 41.495C119.965 40.9583 119.463 40.3167 119.102 39.57L123.162 37.82C123.29 38.0067 123.482 38.2108 123.739 38.4325C123.996 38.6425 124.305 38.8292 124.667 38.9925C125.04 39.1558 125.472 39.2375 125.962 39.2375C126.323 39.2375 126.673 39.1967 127.012 39.115C127.35 39.0217 127.624 38.8758 127.834 38.6775C128.044 38.4675 128.149 38.1933 128.149 37.855C128.149 37.4817 128.015 37.1958 127.747 36.9975C127.478 36.7992 127.152 36.6533 126.767 36.56C126.393 36.455 126.032 36.3675 125.682 36.2975C124.608 36.1108 123.593 35.7783 122.637 35.3C121.692 34.81 120.922 34.18 120.327 33.41C119.732 32.64 119.434 31.7183 119.434 30.645C119.434 29.4667 119.743 28.4517 120.362 27.6C120.98 26.7367 121.785 26.0717 122.777 25.605C123.768 25.1383 124.842 24.905 125.997 24.905C127.362 24.905 128.627 25.1908 129.794 25.7625C130.961 26.3342 131.9 27.1392 132.612 28.1775L128.797 30.435C128.645 30.2133 128.447 30.0033 128.202 29.805C127.968 29.595 127.694 29.42 127.379 29.28C127.076 29.1283 126.749 29.0408 126.399 29.0175C125.944 28.9825 125.53 29.0117 125.157 29.105C124.783 29.1867 124.486 29.3442 124.264 29.5775C124.054 29.8108 123.949 30.1258 123.949 30.5225C123.949 30.9075 124.118 31.1933 124.457 31.38C124.795 31.555 125.186 31.6892 125.629 31.7825C126.072 31.8642 126.463 31.9633 126.802 32.08C127.817 32.4067 128.767 32.8267 129.654 33.34C130.552 33.8417 131.276 34.46 131.824 35.195C132.372 35.93 132.629 36.7933 132.594 37.785C132.594 38.94 132.25 39.955 131.562 40.83C130.873 41.6933 129.981 42.3525 128.884 42.8075C127.799 43.2508 126.644 43.42 125.419 43.315ZM135.092 25.5H139.922V43H135.092V25.5ZM137.542 23.4875C136.842 23.4875 136.253 23.2542 135.775 22.7875C135.296 22.3208 135.057 21.7433 135.057 21.055C135.057 20.3667 135.296 19.7892 135.775 19.3225C136.253 18.8558 136.836 18.6225 137.525 18.6225C138.213 18.6225 138.791 18.8558 139.257 19.3225C139.736 19.7892 139.975 20.3667 139.975 21.055C139.975 21.7433 139.741 22.3208 139.275 22.7875C138.82 23.2542 138.242 23.4875 137.542 23.4875ZM153.997 37.47L158.337 39.815C157.532 40.9117 156.523 41.7925 155.31 42.4575C154.096 43.1225 152.772 43.455 151.337 43.455C149.727 43.455 148.257 43.0408 146.927 42.2125C145.609 41.3842 144.553 40.2758 143.76 38.8875C142.978 37.4875 142.587 35.9417 142.587 34.25C142.587 32.9667 142.815 31.7708 143.27 30.6625C143.725 29.5425 144.349 28.5625 145.142 27.7225C145.947 26.8708 146.88 26.2058 147.942 25.7275C149.004 25.2492 150.135 25.01 151.337 25.01C152.772 25.01 154.096 25.3425 155.31 26.0075C156.523 26.6725 157.532 27.565 158.337 28.685L153.997 31.03C153.635 30.645 153.221 30.3533 152.755 30.155C152.3 29.945 151.827 29.84 151.337 29.84C150.59 29.84 149.92 30.0442 149.325 30.4525C148.741 30.8608 148.275 31.4033 147.925 32.08C147.586 32.745 147.417 33.4683 147.417 34.25C147.417 35.02 147.592 35.7375 147.942 36.4025C148.292 37.0675 148.759 37.6042 149.342 38.0125C149.937 38.4208 150.602 38.625 151.337 38.625C151.839 38.625 152.317 38.52 152.772 38.31C153.227 38.1 153.635 37.82 153.997 37.47ZM160.829 43V16.75H165.659V43H160.829ZM180.457 25.5H185.602L176.012 51.75H170.902L174.052 43L167.752 25.5H173.037L176.467 36.4025L180.457 25.5ZM187.968 43V18.5H197.086C198.404 18.5 199.6 18.7742 200.673 19.3225C201.746 19.8592 202.592 20.6292 203.211 21.6325C203.841 22.6358 204.156 23.8142 204.156 25.1675C204.156 25.7158 204.08 26.2817 203.928 26.865C203.788 27.4483 203.543 27.985 203.193 28.475C202.855 28.965 202.388 29.3383 201.793 29.595C202.563 29.7817 203.181 30.1317 203.648 30.645C204.115 31.1467 204.471 31.73 204.716 32.395C204.961 33.0483 205.124 33.7192 205.206 34.4075C205.287 35.0958 205.328 35.72 205.328 36.28C205.328 37.54 205.001 38.6775 204.348 39.6925C203.695 40.7075 202.814 41.5125 201.706 42.1075C200.609 42.7025 199.396 43 198.066 43H187.968ZM192.798 38.8875H197.558C198.2 38.8875 198.783 38.7358 199.308 38.4325C199.833 38.1175 200.253 37.6917 200.568 37.155C200.883 36.6067 201.041 35.9883 201.041 35.3C201.041 34.7167 200.883 34.1625 200.568 33.6375C200.253 33.1125 199.833 32.6867 199.308 32.36C198.783 32.0217 198.2 31.8525 197.558 31.8525H192.798V38.8875ZM192.798 27.8275H196.526C197.296 27.8275 197.955 27.5767 198.503 27.075C199.051 26.5733 199.326 25.9258 199.326 25.1325C199.326 24.3158 199.051 23.6975 198.503 23.2775C197.955 22.8458 197.296 22.63 196.526 22.63H192.798V27.8275ZM208.818 25.5H213.648V43H208.818V25.5ZM211.268 23.4875C210.568 23.4875 209.979 23.2542 209.5 22.7875C209.022 22.3208 208.783 21.7433 208.783 21.055C208.783 20.3667 209.022 19.7892 209.5 19.3225C209.979 18.8558 210.562 18.6225 211.25 18.6225C211.939 18.6225 212.516 18.8558 212.983 19.3225C213.461 19.7892 213.7 20.3667 213.7 21.055C213.7 21.7433 213.467 22.3208 213 22.7875C212.545 23.2542 211.968 23.4875 211.268 23.4875ZM227.361 30.33H224.211V43H219.381V30.33H216.966V25.5H219.381V20.005H224.211V25.5H227.361V30.33Z" fill="white"/>
<path d="M228.11 18L229.09 11H231.74C232.123 11 232.458 11.08 232.745 11.24C233.035 11.3967 233.25 11.62 233.39 11.91C233.533 12.2 233.577 12.54 233.52 12.93C233.5 13.0767 233.46 13.2317 233.4 13.395C233.343 13.555 233.258 13.705 233.145 13.845C233.032 13.985 232.882 14.095 232.695 14.175C232.912 14.2283 233.075 14.3283 233.185 14.475C233.295 14.6217 233.368 14.7917 233.405 14.985C233.445 15.175 233.46 15.3683 233.45 15.565C233.443 15.7583 233.428 15.9333 233.405 16.09C233.358 16.4433 233.218 16.765 232.985 17.055C232.755 17.3417 232.468 17.5717 232.125 17.745C231.782 17.915 231.417 18 231.03 18H228.11ZM229.785 16.73H231.045C231.218 16.73 231.382 16.69 231.535 16.61C231.692 16.5267 231.822 16.4133 231.925 16.27C232.032 16.1267 232.097 15.9633 232.12 15.78C232.143 15.6267 232.122 15.4817 232.055 15.345C231.988 15.205 231.89 15.0917 231.76 15.005C231.63 14.9183 231.478 14.875 231.305 14.875H230.045L229.785 16.73ZM230.225 13.625H231.195C231.395 13.625 231.575 13.5583 231.735 13.425C231.898 13.2917 231.993 13.1233 232.02 12.92C232.05 12.7133 232 12.555 231.87 12.445C231.743 12.335 231.58 12.28 231.38 12.28H230.41L230.225 13.625ZM233.881 18L234.861 11H239.321L239.111 12.5H236.151L236.011 13.5H238.291L238.081 15H235.801L235.591 16.5H238.551L238.341 18H233.881ZM245.718 11L245.508 12.5H243.508L242.738 18H241.238L242.008 12.5H240.008L240.218 11H245.718ZM248.051 11H249.741L251.301 18H249.711L249.466 16.9H246.676L246.121 18H244.531L248.051 11ZM247.436 15.4H249.126L248.601 13.08L247.436 15.4Z" fill="white"/>
</svg>
