<svg width="20" height="20" viewBox="0 0 20 20" fill="none" xmlns="http://www.w3.org/2000/svg">
<path d="M10 0C8.02219 0 6.08879 0.58649 4.4443 1.6853C2.79981 2.78412 1.51809 4.3459 0.761209 6.17317C0.00433284 8.00043 -0.193701 10.0111 0.192152 11.9509C0.578004 13.8907 1.53041 15.6725 2.92894 17.0711C4.32746 18.4696 6.10929 19.422 8.0491 19.8079C9.98891 20.1937 11.9996 19.9957 13.8268 19.2388C15.6541 18.4819 17.2159 17.2002 18.3147 15.5557C19.4135 13.9112 20 11.9778 20 10C20 8.68678 19.7413 7.38642 19.2388 6.17317C18.7363 4.95991 17.9997 3.85752 17.0711 2.92893C16.1425 2.00035 15.0401 1.26375 13.8268 0.761205C12.6136 0.258658 11.3132 0 10 0ZM16 9.8C16.0156 9.97282 15.9808 10.1465 15.9 10.3L13.8 15.2C13.6905 15.4498 13.5073 15.6602 13.2751 15.8032C13.0428 15.9461 12.7724 16.0148 12.5 16H7C6.46957 16 5.96086 15.7893 5.58579 15.4142C5.21072 15.0391 5 14.5304 5 14V9C4.99002 8.81426 5.02063 8.62858 5.08971 8.45588C5.15879 8.28318 5.26468 8.12761 5.4 8L10 3L10.69 3.69C10.8717 3.87916 10.9783 4.12798 10.99 4.39V4.59L10.41 8H15C15.2652 8 15.5196 8.10536 15.7071 8.29289C15.8946 8.48043 16 8.73478 16 9V9.8Z" fill="#34C759"/>
</svg>
